<?xml version="1.0" encoding="UTF-8" standalone="no"?>
<!-- Created with Inkscape (http://www.inkscape.org/) -->

<svg
   xmlns:dc="http://purl.org/dc/elements/1.1/"
   xmlns:cc="http://creativecommons.org/ns#"
   xmlns:rdf="http://www.w3.org/1999/02/22-rdf-syntax-ns#"
   xmlns:svg="http://www.w3.org/2000/svg"
   xmlns="http://www.w3.org/2000/svg"
   xmlns:sodipodi="http://sodipodi.sourceforge.net/DTD/sodipodi-0.dtd"
   xmlns:inkscape="http://www.inkscape.org/namespaces/inkscape"
   version="1.1"
   id="svg2"
   xml:space="preserve"
   width="1170"
   height="740"
   viewBox="0 0 1170 740"
   sodipodi:docname="runtime_processed.svg"
   inkscape:version="0.92.3 (2405546, 2018-03-11)"><metadata
     id="metadata8"><rdf:RDF><cc:Work
         rdf:about=""><dc:format>image/svg+xml</dc:format><dc:type
           rdf:resource="http://purl.org/dc/dcmitype/StillImage" /><dc:title></dc:title></cc:Work></rdf:RDF></metadata><defs
     id="defs6"><clipPath
       clipPathUnits="userSpaceOnUse"
       id="clipPath20"><path
         d="M 59.04,73.44 H 473.76 V 444.96 H 59.04 Z"
         id="path18"
         inkscape:connector-curvature="0" /></clipPath><clipPath
       clipPathUnits="userSpaceOnUse"
       id="clipPath126"><path
         d="M 59.04,73.44 H 473.76 V 444.96 H 59.04 Z"
         id="path124"
         inkscape:connector-curvature="0" /></clipPath><clipPath
       clipPathUnits="userSpaceOnUse"
       id="clipPath254"><path
         d="M 126,72 H 907.2 V 506.88 H 126 Z"
         id="path252"
         inkscape:connector-curvature="0" /></clipPath><clipPath
       clipPathUnits="userSpaceOnUse"
       id="clipPath244"><path
         d="M 126,72 H 907.2 V 506.88 H 126 Z"
         id="path242"
         inkscape:connector-curvature="0" /></clipPath><clipPath
       clipPathUnits="userSpaceOnUse"
       id="clipPath234"><path
         d="M 126,72 H 907.2 V 506.88 H 126 Z"
         id="path232"
         inkscape:connector-curvature="0" /></clipPath><clipPath
       clipPathUnits="userSpaceOnUse"
       id="clipPath224"><path
         d="M 126,72 H 907.2 V 506.88 H 126 Z"
         id="path222"
         inkscape:connector-curvature="0" /></clipPath><clipPath
       clipPathUnits="userSpaceOnUse"
       id="clipPath214"><path
         d="M 126,72 H 907.2 V 506.88 H 126 Z"
         id="path212"
         inkscape:connector-curvature="0" /></clipPath><clipPath
       clipPathUnits="userSpaceOnUse"
       id="clipPath204"><path
         d="M 126,72 H 907.2 V 506.88 H 126 Z"
         id="path202"
         inkscape:connector-curvature="0" /></clipPath><clipPath
       clipPathUnits="userSpaceOnUse"
       id="clipPath194"><path
         d="M 126,72 H 907.2 V 506.88 H 126 Z"
         id="path192"
         inkscape:connector-curvature="0" /></clipPath><clipPath
       clipPathUnits="userSpaceOnUse"
       id="clipPath184"><path
         d="M 126,72 H 907.2 V 506.88 H 126 Z"
         id="path182"
         inkscape:connector-curvature="0" /></clipPath><clipPath
       clipPathUnits="userSpaceOnUse"
       id="clipPath174"><path
         d="M 126,72 H 907.2 V 506.88 H 126 Z"
         id="path172"
         inkscape:connector-curvature="0" /></clipPath><clipPath
       clipPathUnits="userSpaceOnUse"
       id="clipPath164"><path
         d="M 126,72 H 907.2 V 506.88 H 126 Z"
         id="path162"
         inkscape:connector-curvature="0" /></clipPath><clipPath
       clipPathUnits="userSpaceOnUse"
       id="clipPath154"><path
         d="M 126,72 H 907.2 V 506.88 H 126 Z"
         id="path152"
         inkscape:connector-curvature="0" /></clipPath><clipPath
       clipPathUnits="userSpaceOnUse"
       id="clipPath144"><path
         d="M 126,72 H 907.2 V 506.88 H 126 Z"
         id="path142"
         inkscape:connector-curvature="0" /></clipPath><clipPath
       clipPathUnits="userSpaceOnUse"
       id="clipPath134"><path
         d="M 126,72 H 907.2 V 506.88 H 126 Z"
         id="path132"
         inkscape:connector-curvature="0" /></clipPath><clipPath
       clipPathUnits="userSpaceOnUse"
       id="clipPath124"><path
         d="M 126,72 H 907.2 V 506.88 H 126 Z"
         id="path122"
         inkscape:connector-curvature="0" /></clipPath><clipPath
       clipPathUnits="userSpaceOnUse"
       id="clipPath114"><path
         d="M 126,72 H 907.2 V 506.88 H 126 Z"
         id="path112"
         inkscape:connector-curvature="0" /></clipPath><clipPath
       clipPathUnits="userSpaceOnUse"
       id="clipPath22"><path
         d="M 126,72 H 907.2 V 506.88 H 126 Z"
         id="path20"
         inkscape:connector-curvature="0" /></clipPath></defs><sodipodi:namedview
     pagecolor="#ffffff"
     bordercolor="#666666"
     borderopacity="1"
     objecttolerance="10"
     gridtolerance="10"
     guidetolerance="10"
     inkscape:pageopacity="0"
     inkscape:pageshadow="2"
     inkscape:window-width="1919"
     inkscape:window-height="989"
     id="namedview4"
     showgrid="false"
     inkscape:zoom="0.49665833"
     inkscape:cx="359.84546"
     inkscape:cy="598.0768"
     inkscape:window-x="0"
     inkscape:window-y="31"
     inkscape:window-maximized="1"
     inkscape:current-layer="g10" /><g
     id="g10"
     inkscape:groupmode="layer"
     inkscape:label="runtime"
     transform="matrix(1.3333333,0,0,-1.3333333,0,740)"><g
       id="g12" /><g
       id="g1806"
       transform="translate(107.22414,37.761719)"><text
         transform="scale(1,-1)"
         y="-489.14618"
         x="230.75636"
         style="font-variant:normal;font-weight:bold;font-size:20px;font-family:'Times New Roman';-inkscape-font-specification:TimesNewRomanPS-BoldMT;writing-mode:lr-tb;fill:#000000;fill-opacity:1;fill-rule:nonzero;stroke:none;stroke-width:0.99999994"
         id="text270"><tspan
           y="-489.14618"
           x="230.75636"
           sodipodi:role="line"
           id="tspan268"
           style="stroke-width:0.99999994">Human (9606): Runtime analysis</tspan></text>
<path
         inkscape:connector-curvature="0"
         id="path22"
         style="fill:none;stroke:#800080;stroke-width:3.99975014;stroke-linecap:round;stroke-linejoin:round;stroke-miterlimit:10;stroke-dasharray:none;stroke-opacity:1"
         d="m 8.9011108,54.976113 2.9084742,0.889678 2.908474,1.182336 2.92736,0.725791 2.908474,1.486699 2.908474,0.749203 2.908474,1.076979 2.92736,0.971623 2.908474,1.4867 2.908474,2.750979 2.908474,0.959916 2.908475,4.834701 2.92736,2.868042 2.908474,0.807735 2.908474,0.866266 2.908474,1.592056 2.908474,1.35793 2.92736,0.877972 2.908474,1.112098 2.908474,0.269245 2.908474,1.39305 2.92736,1.065272 2.908474,0.456546 2.908474,0.877972 2.908474,0.760909 2.908475,0.362896 2.92736,0.31607 2.908474,1.065273 2.908474,1.182335 2.908474,10.149359 2.92736,1.849596 2.908474,0.21071 2.908471,3.82796 2.90848,0.69067 2.90847,2.39979 2.92736,3.07876 2.90848,1.4867 2.90847,0.94821 2.90847,1.06527 2.90848,0.86627 2.92736,0.84285 2.90847,0.98333 2.90848,1.33452 2.90847,1.95495 2.92736,0.77261 2.90847,1.99007 2.90848,0.59703 2.90847,0.49166 2.90848,1.61547 2.92736,0.83115 2.90847,0.26924 2.90847,1.47499 2.90848,1.46329 2.90847,2.37638 2.92736,0.77261 2.90848,2.10714 2.90847,0.97162 2.90847,0.38631 2.92737,1.76765 2.90847,0.28095 2.90847,0.77262 2.90848,1.06527 2.90847,6.48529 2.92736,0.22242 2.90848,0.50337 2.90847,0.76091 2.90847,2.47002 2.92736,2.38809 2.90848,0.62043 2.90847,1.83789 2.90848,1.47499 2.90847,1.15893 2.92736,1.2994 2.90847,1.27598 2.90848,1.33452 2.90847,0.44484 2.90848,0.71408 2.92736,0.38631 2.90847,13.60272 2.90847,1.24087 2.90848,0.63213 2.92736,1.2994 2.90847,0.86627 2.90848,0.40972 2.90847,2.18908 2.90847,0.57361 2.92737,0.49166 2.90847,0.53849 2.90847,0.70238 2.90848,0.36289 2.92736,1.32281 2.90847,0.35119 2.90848,1.2877 2.90847,0.3863 2.90847,0.43314 2.92736,0.66726 2.90848,0.40972 2.90847,0.36289 2.90848,0.95992 2.90847,0.67896 2.92736,1.58035 2.90847,1.06528 2.90848,2.56367 2.90847,1.38135 2.92736,6.68429 2.90848,3.61725 2.90847,1.36963 2.90847,2.57539 2.90848,2.45832 2.92736,1.12381 2.90847,1.05356 2.90848,5.03371 2.90847,3.1607 2.92736,1.96666 2.90848,5.01029 2.90847,1.38135 2.90847,1.25257 2.90848,0.35119 2.92736,1.3111 2.90847,5.5722 2.90848,1.56864 2.90847,4.85812 2.90847,0.94821 2.92736,1.79106 2.90848,3.26606 2.90847,3.58212 2.90848,3.12558 2.92736,3.93332 2.90847,1.97836 2.90847,0.62044 2.90848,1.82618 2.90847,0.46825 2.92736,2.18908 2.90848,0.26924 2.90847,3.44165 2.90847,1.41647 2.90848,3.31288 2.92736,2.21249 2.90847,1.00674 2.90848,1.15892 2.90847,1.31111 2.92736,0.7492 2.90848,0.51508 2.90847,0.17559 2.90847,2.35297 2.90848,1.21745 2.92736,0.70238 2.90847,0.52678 2.90848,0.93651 2.90847,3.62895 2.92736,0.55019 2.90847,1.12381 2.90848,0.9248 2.90847,1.76765 2.90848,1.61547 2.92736,2.35296 2.90847,0.50337 2.90847,1.475 2.90848,1.21745 2.90847,2.68074 2.92736,1.83789 2.90848,6.696 2.90847,1.76765 2.90847,1.82618 2.92736,1.55694 2.90848,5.68926 2.90847,1.04186 2.90848,1.17063 2.90847,2.36467 2.92736,4.61228 2.90848,2.61051 2.90847,1.18233 2.90847,1.03016 2.92736,4.17915 2.90848,0.51507 2.90847,1.21746 2.90848,0.55019 2.90847,0.5502 2.92736,1.674 2.90847,1.674 2.90848,0.79603 2.90847,1.76765 2.90848,0.35119 2.92736,1.63888 2.90847,1.15892 2.90847,0.94821 2.90848,1.05357 2.92736,0.91309 2.90847,0.57361 2.90848,0.91309 2.90847,0.97162 2.90847,2.55197 2.92736,1.1004 2.90848,0.28095 2.90847,1.42817 2.90848,1.47499 2.92736,2.11884 2.90847,1.42817 2.90848,1.4984 2.90847,3.25435 2.90847,0.87798 2.92736,2.59879 2.90848,1.58035 2.90847,2.87975 2.90848,1.15893 2.90847,1.03015 2.92736,0.80773 2.90847,0.44484 2.90848,0.59702 2.90847,0.45655 2.92736,0.80773 2.90848,1.08869 2.90847,0.97162 2.90847,0.86627 2.90848,1.66229 2.92736,1.38134 2.90847,1.80277 2.90848,3.39483 2.90847,1.21746 2.90847,1.36963 2.92736,1.22916 2.90848,0.97163 2.90847,2.7978 2.90848,0.58531 2.92736,1.75595 2.90847,1.32281 2.90848,0.5502 2.90847,1.90812 2.90847,0.5502 2.92736,0.57361 2.90848,0.80773 2.90847,2.07202 2.90848,0.59702 2.92736,1.28769 2.90847,0.60873 2.90847,0.58531 2.90848,0.42143 2.90847,0.71408 2.92736,0.53849 2.90848,0.87797 2.90847,0.32778 2.90847,1.65059 2.90848,0.98333 2.92736,0.86626 2.90847,0.44484 2.90848,0.53849 2.90847,0.39802 2.92736,1.47499 2.90847,0.58531 2.90848,1.07698" /><path
         d="M 5.9926368,36.936711 V 28.508178"
         style="fill:none;stroke:#000000;stroke-width:1.1151756;stroke-linecap:round;stroke-linejoin:round;stroke-miterlimit:10;stroke-dasharray:none;stroke-opacity:1"
         id="path28"
         inkscape:connector-curvature="0" /><path
         d="M 151.62409,36.936711 V 28.508178"
         style="fill:none;stroke:#000000;stroke-width:1.1151756;stroke-linecap:round;stroke-linejoin:round;stroke-miterlimit:10;stroke-dasharray:none;stroke-opacity:1"
         id="path30"
         inkscape:connector-curvature="0" /><path
         d="M 297.23665,36.936711 V 28.508178"
         style="fill:none;stroke:#000000;stroke-width:1.1151756;stroke-linecap:round;stroke-linejoin:round;stroke-miterlimit:10;stroke-dasharray:none;stroke-opacity:1"
         id="path32"
         inkscape:connector-curvature="0" /><path
         d="M 442.8681,36.936711 V 28.508178"
         style="fill:none;stroke:#000000;stroke-width:1.1151756;stroke-linecap:round;stroke-linejoin:round;stroke-miterlimit:10;stroke-dasharray:none;stroke-opacity:1"
         id="path34"
         inkscape:connector-curvature="0" /><path
         d="M 588.49955,36.936711 V 28.508178"
         style="fill:none;stroke:#000000;stroke-width:1.1151756;stroke-linecap:round;stroke-linejoin:round;stroke-miterlimit:10;stroke-dasharray:none;stroke-opacity:1"
         id="path36"
         inkscape:connector-curvature="0" /><path
         d="M 734.131,36.936711 V 28.508178"
         style="fill:none;stroke:#000000;stroke-width:1.1151756;stroke-linecap:round;stroke-linejoin:round;stroke-miterlimit:10;stroke-dasharray:none;stroke-opacity:1"
         id="path38"
         inkscape:connector-curvature="0" /><path
         d="m -20.108085,53.044574 h -13.59806"
         style="fill:none;stroke:#000000;stroke-width:1.1151756;stroke-linecap:round;stroke-linejoin:round;stroke-miterlimit:10;stroke-dasharray:none;stroke-opacity:1"
         id="path66"
         inkscape:connector-curvature="0" /><path
         d="m -20.108085,120.15677 h -13.59806"
         style="fill:none;stroke:#000000;stroke-width:1.1151756;stroke-linecap:round;stroke-linejoin:round;stroke-miterlimit:10;stroke-dasharray:none;stroke-opacity:1"
         id="path68"
         inkscape:connector-curvature="0" /><path
         d="m -20.108085,187.28067 h -13.59806"
         style="fill:none;stroke:#000000;stroke-width:1.1151756;stroke-linecap:round;stroke-linejoin:round;stroke-miterlimit:10;stroke-dasharray:none;stroke-opacity:1"
         id="path70"
         inkscape:connector-curvature="0" /><path
         d="m -20.108085,254.39287 h -13.59806"
         style="fill:none;stroke:#000000;stroke-width:1.1151756;stroke-linecap:round;stroke-linejoin:round;stroke-miterlimit:10;stroke-dasharray:none;stroke-opacity:1"
         id="path72"
         inkscape:connector-curvature="0" /><path
         d="m -20.108085,321.50506 h -13.59806"
         style="fill:none;stroke:#000000;stroke-width:1.1151756;stroke-linecap:round;stroke-linejoin:round;stroke-miterlimit:10;stroke-dasharray:none;stroke-opacity:1"
         id="path74"
         inkscape:connector-curvature="0" /><path
         d="m -20.108085,388.62896 h -13.59806"
         style="fill:none;stroke:#000000;stroke-width:1.1151756;stroke-linecap:round;stroke-linejoin:round;stroke-miterlimit:10;stroke-dasharray:none;stroke-opacity:1"
         id="path76"
         inkscape:connector-curvature="0" /><path
         d="m -20.108085,455.74116 h -13.59806"
         style="fill:none;stroke:#000000;stroke-width:1.1151756;stroke-linecap:round;stroke-linejoin:round;stroke-miterlimit:10;stroke-dasharray:none;stroke-opacity:1"
         id="path78"
         inkscape:connector-curvature="0" /><path
         d="M -20.108085,36.936711 H 763.14019 V 471.84902 H -20.108085 V 36.936711"
         style="fill:none;stroke:#000000;stroke-width:0.80024999;stroke-linecap:round;stroke-linejoin:round;stroke-miterlimit:10;stroke-dasharray:none;stroke-opacity:1"
         id="path108"
         inkscape:connector-curvature="0" /><g
         style="stroke:#1f77b4;stroke-width:2.68999124;stroke-miterlimit:10;stroke-dasharray:none;stroke-opacity:1"
         transform="matrix(1.8886195,0,0,1.1706296,-131.61218,-49.034327)"
         id="g120"><g
           style="stroke:#1f77b4;stroke-width:2.68999124;stroke-miterlimit:10;stroke-dasharray:none;stroke-opacity:1"
           clip-path="url(#clipPath126)"
           id="g122"><path
             inkscape:connector-curvature="0"
             id="path128"
             style="fill:none;stroke:#1f77b4;stroke-width:2.68999124;stroke-linecap:round;stroke-linejoin:round;stroke-miterlimit:10;stroke-dasharray:none;stroke-opacity:1"
             d="m 74.4,87.77 h 75.57 l 77.1,0.01 77.11,-0.01 77.11,0.01 77.11,-0.02" /></g></g><text
         transform="scale(1,-1)"
         y="25.984375"
         x="288.50427"
         style="font-variant:normal;font-weight:bold;font-size:20px;font-family:'Times New Roman';-inkscape-font-specification:TimesNewRomanPS-BoldMT;writing-mode:lr-tb;fill:#000000;fill-opacity:1;fill-rule:nonzero;stroke:none;stroke-width:0.99999994"
         id="text66-6"><tspan
           y="25.984375"
           x="288.50427"
           sodipodi:role="line"
           id="tspan64-2"
           style="stroke-width:0.99999994"># protein sequences</tspan></text>
<text
         transform="matrix(0,1,1,0,0,0)"
         y="-86.169449"
         x="221.62035"
         style="font-variant:normal;font-weight:bold;font-size:20px;font-family:'Times New Roman';-inkscape-font-specification:TimesNewRomanPS-BoldMT;writing-mode:lr-tb;fill:#000000;fill-opacity:1;fill-rule:nonzero;stroke:none;stroke-width:0.99999994"
         id="text66-6-6"><tspan
           y="-86.169449"
           x="221.62035"
           sodipodi:role="line"
           id="tspan64-2-1"
           style="stroke-width:0.99999994">time [h]</tspan></text>
<text
         transform="scale(1,-1)"
         y="-47.761902"
         x="-51.178101"
         style="font-variant:normal;font-weight:bold;font-size:17px;font-family:'Times New Roman';-inkscape-font-specification:TimesNewRomanPS-BoldMT;writing-mode:lr-tb;fill:#000000;fill-opacity:1;fill-rule:nonzero;stroke:none;stroke-width:0.99999994"
         id="text78-8"><tspan
           y="-47.761902"
           x="-51.178101"
           sodipodi:role="line"
           id="tspan76-7"
           style="stroke-width:0.99999994">0</tspan></text>
<text
         transform="scale(1,-1)"
         y="-182.16022"
         x="-68.178101"
         style="font-variant:normal;font-weight:bold;font-size:17px;font-family:'Times New Roman';-inkscape-font-specification:TimesNewRomanPS-BoldMT;writing-mode:lr-tb;fill:#000000;fill-opacity:1;fill-rule:nonzero;stroke:none;stroke-width:0.99999994"
         id="text78-0"><tspan
           y="-182.16022"
           x="-68.178101"
           sodipodi:role="line"
           id="tspan76-23"
           style="stroke-width:0.99999994">100</tspan></text>
<text
         transform="scale(1,-1)"
         y="-316.55853"
         x="-68.178101"
         style="font-variant:normal;font-weight:bold;font-size:17px;font-family:'Times New Roman';-inkscape-font-specification:TimesNewRomanPS-BoldMT;writing-mode:lr-tb;fill:#000000;fill-opacity:1;fill-rule:nonzero;stroke:none;stroke-width:0.99999994"
         id="text78-8-7"><tspan
           y="-316.55853"
           x="-68.178101"
           sodipodi:role="line"
           id="tspan76-7-5"
           style="stroke-width:0.99999994">200</tspan></text>
<text
         transform="scale(1,-1)"
         y="-450.95682"
         x="-68.178101"
         style="font-variant:normal;font-weight:bold;font-size:17px;font-family:'Times New Roman';-inkscape-font-specification:TimesNewRomanPS-BoldMT;writing-mode:lr-tb;fill:#000000;fill-opacity:1;fill-rule:nonzero;stroke:none;stroke-width:0.99999994"
         id="text78-0-9"><tspan
           y="-450.95682"
           x="-68.178101"
           sodipodi:role="line"
           id="tspan76-23-2"
           style="stroke-width:0.99999994">300</tspan></text>
<text
         transform="scale(1,-1)"
         y="-5.0500402"
         x="139.37544"
         style="font-variant:normal;font-weight:bold;font-size:17px;font-family:'Times New Roman';-inkscape-font-specification:TimesNewRomanPS-BoldMT;writing-mode:lr-tb;fill:#000000;fill-opacity:1;fill-rule:nonzero;stroke:none;stroke-width:0.99999994"
         id="text38-9"><tspan
           y="-5.0500402"
           x="139.37544"
           sodipodi:role="line"
           id="tspan36-7"
           style="stroke-width:0.99999994">50</tspan></text>
<text
         transform="scale(1,-1)"
         y="-5.0500402"
         x="430.96893"
         style="font-variant:normal;font-weight:bold;font-size:17px;font-family:'Times New Roman';-inkscape-font-specification:TimesNewRomanPS-BoldMT;writing-mode:lr-tb;fill:#000000;fill-opacity:1;fill-rule:nonzero;stroke:none;stroke-width:0.99999994"
         id="text50-5-1"><tspan
           y="-5.0500402"
           x="430.96893"
           sodipodi:role="line"
           id="tspan48-3-2"
           style="stroke-width:0.99999994">100</tspan></text>
<text
         transform="scale(1,-1)"
         y="-5.0500402"
         x="722.52087"
         style="font-variant:normal;font-weight:bold;font-size:17px;font-family:'Times New Roman';-inkscape-font-specification:TimesNewRomanPS-BoldMT;writing-mode:lr-tb;fill:#000000;fill-opacity:1;fill-rule:nonzero;stroke:none;stroke-width:0.99999994"
         id="text62-5-1"><tspan
           y="-5.0500402"
           x="722.52087"
           sodipodi:role="line"
           id="tspan60-6-9"
           style="stroke-width:0.99999994">150</tspan></text>
<path
         d="M 2.8716055,349.73319 H 242.72163 c 2.4,0 3.6,0.78217 3.6,2.34652 v 98.33383 c 0,1.56434 -1.2,2.34652 -3.6,2.34652 H 2.8716055 c -2.4,0 -3.6,-0.78218 -3.6,-2.34652 v -98.33383 c 0,-1.56435 1.2,-2.34652 3.6,-2.34652 z"
         style="fill:#ffffff;fill-opacity:0.8;fill-rule:nonzero;stroke:#cccccc;stroke-width:0.80734813;stroke-linecap:butt;stroke-linejoin:miter;stroke-miterlimit:10;stroke-dasharray:none;stroke-opacity:0.8"
         id="path272-4"
         inkscape:connector-curvature="0" /><path
         d="M 6.4716055,430.26008 H 42.471605"
         style="fill:none;stroke:#1f77b4;stroke-width:6;stroke-linecap:square;stroke-linejoin:round;stroke-miterlimit:10;stroke-dasharray:none;stroke-opacity:1"
         id="path274-7"
         inkscape:connector-curvature="0" /><text
         transform="scale(1,-1)"
         y="-423.96011"
         x="56.871582"
         style="font-variant:normal;font-weight:bold;font-size:18px;font-family:'Times New Roman';-inkscape-font-specification:TimesNewRomanPS-BoldMT;writing-mode:lr-tb;fill:#000000;fill-opacity:1;fill-rule:nonzero;stroke:none;stroke-width:0.99999994"
         id="text278-8"><tspan
           y="-423.96011"
           x="56.871582"
           sodipodi:role="line"
           id="tspan276-4"
           style="stroke-width:0.99999994">TriPepSVM</tspan></text>
<path
         d="M 6.4716055,404.81633 H 42.471605"
         style="fill:none;stroke:#ff7f0e;stroke-width:6;stroke-linecap:square;stroke-linejoin:round;stroke-miterlimit:10;stroke-dasharray:none;stroke-opacity:1"
         id="path280-5"
         inkscape:connector-curvature="0" /><text
         transform="scale(1,-1)"
         y="-398.51639"
         x="56.871582"
         style="font-variant:normal;font-weight:bold;font-size:18px;font-family:'Times New Roman';-inkscape-font-specification:TimesNewRomanPS-BoldMT;writing-mode:lr-tb;fill:#000000;fill-opacity:1;fill-rule:nonzero;stroke:none;stroke-width:0.99999994"
         id="text284-0"><tspan
           x="56.871582 69.867554 81.873596 92.871582 103.86951 111.86151 119.85361"
           y="-398.51639"
           sodipodi:role="line"
           id="tspan282-3"
           style="stroke-width:0.99999994">RBPPred</tspan></text>
<path
         d="M 6.4716055,377.92885 H 42.471605"
         style="fill:none;stroke:#800080;stroke-width:6;stroke-linecap:square;stroke-linejoin:round;stroke-miterlimit:10;stroke-dasharray:none;stroke-opacity:1"
         id="path292-6"
         inkscape:connector-curvature="0" /><text
         transform="scale(1,-1)"
         y="-371.62881"
         x="56.871582"
         style="font-variant:normal;font-weight:bold;font-size:18px;font-family:'Times New Roman';-inkscape-font-specification:TimesNewRomanPS-BoldMT;writing-mode:lr-tb;fill:#000000;fill-opacity:1;fill-rule:nonzero;stroke:none;stroke-width:0.99999994"
         id="text298-2"><tspan
           x="56.871582 66.879578 77.877563 91.881592 103.88757 109.88159 116.88361 124.87561 134.88361 139.38361 152.37959 165.37563"
           y="-371.62881"
           sodipodi:role="line"
           id="tspan296-0"
           style="stroke-width:0.99999994">SPOT-seq RNA</tspan></text>
</g></g></svg>