<?xml version="1.0" encoding="utf-8" standalone="no"?>
<!DOCTYPE svg PUBLIC "-//W3C//DTD SVG 1.1//EN"
  "http://www.w3.org/Graphics/SVG/1.1/DTD/svg11.dtd">
<!-- Created with matplotlib (https://matplotlib.org/) -->
<svg height="576pt" version="1.1" viewBox="0 0 1008 576" width="1008pt" xmlns="http://www.w3.org/2000/svg" xmlns:xlink="http://www.w3.org/1999/xlink">
 <defs>
  <style type="text/css">
*{stroke-linecap:butt;stroke-linejoin:round;}
  </style>
 </defs>
 <g id="figure_1">
  <g id="patch_1">
   <path d="M 0 576 
L 1008 576 
L 1008 0 
L 0 0 
z
" style="fill:#ffffff;"/>
  </g>
  <g id="axes_1">
   <g id="patch_2">
    <path clip-path="url(#p2160bef707)" d="M 549.348865 152.195913 
C 528.750783 131.775847 502.974173 117.347265 474.797883 110.465641 
C 446.621592 103.584017 417.095878 104.505858 389.403759 113.131787 
C 361.711641 121.757716 336.885326 137.766205 317.601218 159.431459 
C 298.317109 181.096712 285.29401 207.611171 279.935876 236.116442 
C 274.577742 264.621713 277.084295 294.055279 287.185316 321.244053 
C 297.286337 348.432828 314.605316 372.363364 337.27518 390.455831 
C 359.945044 408.548298 387.120786 420.128308 415.872725 423.947479 
C 444.624665 427.766649 473.881088 423.682623 500.488007 412.135678 
C 485.09887 391.679404 475.696209 367.341645 473.334684 341.852278 
C 470.973159 316.36291 475.744495 290.711966 487.113509 267.776618 
C 486.74521 244.800027 492.27319 222.108081 503.167732 201.875227 
C 514.062274 181.642374 529.963908 164.536205 549.348865 152.195913 
" style="fill:#3d3e3d;opacity:0.4;stroke:#3d3e3d;stroke-linejoin:miter;"/>
   </g>
   <g id="patch_3">
    <path clip-path="url(#p2160bef707)" d="M 549.348865 152.195913 
C 555.559552 158.352924 561.254065 165.009653 566.374951 172.098937 
C 571.495837 179.188222 576.025817 186.686141 579.919187 194.517047 
C 598.72459 190.195619 618.228602 189.862969 637.170433 193.540601 
C 656.112264 197.218233 674.074776 204.825158 689.896826 215.869644 
C 705.718876 226.914131 719.052029 241.152957 729.034397 257.665687 
C 739.016765 274.178418 745.428515 292.601409 747.855174 311.743751 
C 757.493509 285.350206 758.620256 256.587792 751.076187 229.521138 
C 743.532119 202.454485 727.690171 178.421617 705.789087 160.818798 
C 683.888003 143.215979 657.010451 132.913395 628.954698 131.36698 
C 600.898944 129.820564 573.05191 137.106764 549.348865 152.195913 
" style="fill:#ee7600;opacity:0.4;stroke:#ee7600;stroke-linejoin:miter;"/>
   </g>
   <g id="patch_4">
    <path clip-path="url(#p2160bef707)" d="M 549.348865 152.195913 
C 529.963908 164.536205 514.062274 181.642374 503.167732 201.875227 
C 492.27319 222.108081 486.74521 244.800027 487.113509 267.776618 
C 496.194319 249.457391 509.231113 233.38138 525.279818 220.712745 
C 541.328522 208.044111 559.99216 199.096222 579.919187 194.517047 
C 576.025817 186.686141 571.495837 179.188222 566.374951 172.098937 
C 561.254065 165.009653 555.559552 158.352924 549.348865 152.195913 
" style="fill:#37652d;opacity:0.4;stroke:#37652d;stroke-linejoin:miter;"/>
   </g>
   <g id="patch_5">
    <path clip-path="url(#p2160bef707)" d="M 500.488007 412.135678 
C 518.794593 436.470021 544.645572 454.079388 573.992598 462.206098 
C 603.339623 470.332807 634.566378 468.529271 662.782651 457.077929 
C 690.998925 445.626586 714.650676 425.158133 730.033966 398.877994 
C 745.417256 372.597854 751.684833 341.953436 747.855174 311.743751 
C 740.956227 330.635779 729.905577 347.741372 715.519716 361.796663 
C 701.133854 375.851953 683.776034 386.502036 664.728759 392.960016 
C 645.681483 399.417996 625.425709 401.520805 605.45806 399.113075 
C 585.49041 396.705344 566.315081 389.847871 549.348865 379.047329 
C 542.318914 386.016525 534.65625 392.317095 526.459843 397.867665 
C 518.263435 403.418234 509.568724 408.194803 500.488007 412.135678 
" style="fill:#031f6f;opacity:0.4;stroke:#031f6f;stroke-linejoin:miter;"/>
   </g>
   <g id="patch_6">
    <path clip-path="url(#p2160bef707)" d="M 500.488007 412.135678 
C 509.568724 408.194803 518.263435 403.418234 526.459843 397.867665 
C 534.65625 392.317095 542.318914 386.016525 549.348865 379.047329 
C 530.579352 367.098823 515.065899 350.676149 504.204617 331.257242 
C 493.343335 311.838335 487.470115 290.023736 487.113509 267.776618 
C 475.744495 290.711966 470.973159 316.36291 473.334684 341.852278 
C 475.696209 367.341645 485.09887 391.679404 500.488007 412.135678 
" style="fill:#6e80b7;opacity:0.4;stroke:#6e80b7;stroke-linejoin:miter;"/>
   </g>
   <g id="patch_7">
    <path clip-path="url(#p2160bef707)" d="M 579.919187 194.517047 
C 594.865789 224.579806 599.959502 258.603453 594.472339 291.72537 
C 588.985177 324.847288 573.19162 355.410632 549.348865 379.047329 
C 566.315081 389.847871 585.49041 396.705344 605.45806 399.113075 
C 625.425709 401.520805 645.681483 399.417996 664.728759 392.960016 
C 683.776034 386.502036 701.133854 375.851953 715.519716 361.796663 
C 729.905577 347.741372 740.956227 330.635779 747.855174 311.743751 
C 745.428515 292.601409 739.016765 274.178418 729.034397 257.665687 
C 719.052029 241.152957 705.718876 226.914131 689.896826 215.869644 
C 674.074776 204.825158 656.112264 197.218233 637.170433 193.540601 
C 618.228602 189.862969 598.72459 190.195619 579.919187 194.517047 
" style="fill:#4d2600;opacity:0.4;stroke:#4d2600;stroke-linejoin:miter;"/>
   </g>
   <g id="patch_8">
    <path clip-path="url(#p2160bef707)" d="M 487.113509 267.776618 
C 487.470115 290.023736 493.343335 311.838335 504.204617 331.257242 
C 515.065899 350.676149 530.579352 367.098823 549.348865 379.047329 
C 573.19162 355.410632 588.985177 324.847288 594.472339 291.72537 
C 599.959502 258.603453 594.865789 224.579806 579.919187 194.517047 
C 559.99216 199.096222 541.328522 208.044111 525.279818 220.712745 
C 509.231113 233.38138 496.194319 249.457391 487.113509 267.776618 
" style="fill:#890707;opacity:0.4;stroke:#890707;stroke-linejoin:miter;"/>
   </g>
   <g id="text_1">
    <!-- 477 -->
    <defs>
     <path d="M 2.484375 24.953125 
L 33.9375 67.578125 
L 39.890625 67.578125 
L 39.890625 24.953125 
L 45.953125 24.953125 
L 45.953125 14.84375 
L 39.890625 14.84375 
L 39.890625 0 
L 26.46875 0 
L 26.46875 14.84375 
L 2.484375 14.84375 
z
M 7.234375 24.953125 
L 26.46875 24.953125 
L 26.46875 51.078125 
z
" id="TimesNewRomanPS-BoldMT-52"/>
     <path d="M 17.71875 -1.375 
L 35.75 53.265625 
L 22.015625 53.265625 
Q 13.96875 53.265625 9.90625 51.171875 
Q 7.078125 49.703125 5.21875 45.65625 
L 3.375 45.65625 
L 8.15625 66.21875 
L 47.609375 66.21875 
L 25.390625 -1.375 
z
" id="TimesNewRomanPS-BoldMT-55"/>
    </defs>
    <g transform="translate(333.296669 253.287733)scale(0.2 -0.2)">
     <use xlink:href="#TimesNewRomanPS-BoldMT-52"/>
     <use x="50" xlink:href="#TimesNewRomanPS-BoldMT-55"/>
     <use x="100" xlink:href="#TimesNewRomanPS-BoldMT-55"/>
    </g>
   </g>
   <g id="text_2">
    <!-- 108 -->
    <defs>
     <path d="M 32.5625 67.578125 
L 32.5625 13.421875 
Q 32.5625 7.328125 33.09375 5.640625 
Q 33.640625 3.953125 35.34375 2.875 
Q 37.0625 1.8125 40.828125 1.8125 
L 42.328125 1.8125 
L 42.328125 0 
L 7.46875 0 
L 7.46875 1.8125 
L 9.234375 1.8125 
Q 13.484375 1.8125 15.28125 2.78125 
Q 17.09375 3.765625 17.71875 5.46875 
Q 18.359375 7.171875 18.359375 13.421875 
L 18.359375 47.75 
Q 18.359375 52.34375 17.921875 53.484375 
Q 17.484375 54.640625 16.28125 55.4375 
Q 15.09375 56.25 13.53125 56.25 
Q 11.03125 56.25 7.46875 54.6875 
L 6.59375 56.453125 
L 30.953125 67.578125 
z
" id="TimesNewRomanPS-BoldMT-49"/>
     <path d="M 46.34375 33.109375 
Q 46.34375 23.1875 43.5625 14.59375 
Q 41.890625 9.328125 39.078125 5.953125 
Q 36.28125 2.59375 32.71875 0.609375 
Q 29.15625 -1.375 24.953125 -1.375 
Q 20.171875 -1.375 16.3125 1.0625 
Q 12.453125 3.515625 9.46875 8.0625 
Q 7.328125 11.375 5.71875 16.890625 
Q 3.609375 24.359375 3.609375 32.328125 
Q 3.609375 43.109375 6.640625 52.15625 
Q 9.125 59.625 14.203125 63.59375 
Q 19.28125 67.578125 24.953125 67.578125 
Q 30.71875 67.578125 35.71875 63.640625 
Q 40.71875 59.71875 43.0625 53.078125 
Q 46.34375 43.953125 46.34375 33.109375 
z
M 31.296875 33.203125 
Q 31.296875 50.59375 31.109375 53.46875 
Q 30.609375 60.25 28.765625 62.640625 
Q 27.546875 64.203125 24.8125 64.203125 
Q 22.703125 64.203125 21.484375 63.03125 
Q 19.671875 61.328125 19.03125 57 
Q 18.40625 52.6875 18.40625 26.859375 
Q 18.40625 12.796875 19.390625 8.015625 
Q 20.125 4.546875 21.484375 3.375 
Q 22.859375 2.203125 25.09375 2.203125 
Q 27.546875 2.203125 28.765625 3.765625 
Q 30.8125 6.5 31.109375 12.203125 
z
" id="TimesNewRomanPS-BoldMT-48"/>
     <path d="M 34.078125 37.40625 
Q 41.0625 32.28125 43.765625 27.859375 
Q 46.484375 23.4375 46.484375 17.71875 
Q 46.484375 9.71875 40.453125 4.171875 
Q 34.421875 -1.375 24.078125 -1.375 
Q 14.265625 -1.375 8.890625 3.453125 
Q 3.515625 8.296875 3.515625 15.28125 
Q 3.515625 20.609375 6.609375 24.609375 
Q 9.71875 28.609375 16.9375 31.9375 
Q 9.078125 37.9375 6.859375 41.75 
Q 4.640625 45.5625 4.640625 50.59375 
Q 4.640625 57.234375 10.28125 62.28125 
Q 15.921875 67.328125 25.734375 67.328125 
Q 35.203125 67.328125 40.296875 62.859375 
Q 45.40625 58.40625 45.40625 52.15625 
Q 45.40625 47.46875 42.640625 43.875 
Q 39.890625 40.28125 34.078125 37.40625 
z
M 30.375 39.890625 
Q 32.171875 42.328125 33.046875 45.359375 
Q 33.9375 48.390625 33.9375 52 
Q 33.9375 58.34375 31.203125 61.71875 
Q 29.15625 64.3125 25.53125 64.3125 
Q 22.265625 64.3125 19.96875 61.9375 
Q 17.671875 59.578125 17.671875 56.0625 
Q 17.671875 52.484375 20.234375 48.65625 
Q 22.796875 44.828125 30.375 39.890625 
z
M 20.609375 29.59375 
Q 19.09375 28.21875 18.453125 27.09375 
Q 17.484375 25.390625 16.703125 22.109375 
Q 15.921875 18.84375 15.921875 15.28125 
Q 15.921875 10.6875 17.09375 7.59375 
Q 18.265625 4.5 20.4375 3.125 
Q 22.609375 1.765625 24.90625 1.765625 
Q 28.46875 1.765625 30.90625 4.375 
Q 33.34375 6.984375 33.34375 11.53125 
Q 33.34375 21 20.609375 29.59375 
z
" id="TimesNewRomanPS-BoldMT-56"/>
    </defs>
    <g transform="translate(674.669218 186.624517)scale(0.2 -0.2)">
     <use xlink:href="#TimesNewRomanPS-BoldMT-49"/>
     <use x="50" xlink:href="#TimesNewRomanPS-BoldMT-48"/>
     <use x="100" xlink:href="#TimesNewRomanPS-BoldMT-56"/>
    </g>
   </g>
   <g id="text_3">
    <!-- 19 -->
    <defs>
     <path d="M 3.078125 -1.375 
L 3.078125 0 
Q 11.1875 1.859375 16.828125 5.46875 
Q 22.46875 9.078125 25.75 14.40625 
Q 29.046875 19.734375 30.375 26.65625 
Q 27.34375 25.09375 25.21875 24.484375 
Q 23.09375 23.875 20.75 23.875 
Q 13.234375 23.875 8.21875 29.296875 
Q 3.21875 34.71875 3.21875 44.140625 
Q 3.21875 50.6875 5.921875 56.125 
Q 8.640625 61.578125 13.671875 64.578125 
Q 18.703125 67.578125 24.125 67.578125 
Q 29.9375 67.578125 35.109375 64.25 
Q 40.28125 60.9375 43.359375 54.640625 
Q 46.4375 48.34375 46.4375 40.28125 
Q 46.4375 29.828125 41.421875 20.25 
Q 36.421875 10.6875 26.515625 4.90625 
Q 16.609375 -0.875 3.078125 -1.375 
z
M 31.109375 30.765625 
Q 31.59375 36.234375 31.59375 40.375 
Q 31.59375 49.265625 29.546875 56.9375 
Q 28.375 61.1875 26.078125 63.1875 
Q 24.859375 64.265625 22.90625 64.265625 
Q 20.453125 64.265625 19.09375 62.15625 
Q 17.1875 59.28125 17.1875 51.171875 
Q 17.1875 37.640625 20.40625 32.515625 
Q 22.515625 29.203125 26.078125 29.203125 
Q 27.984375 29.203125 31.109375 30.765625 
z
" id="TimesNewRomanPS-BoldMT-57"/>
    </defs>
    <g transform="translate(511.222813 209.443087)scale(0.2 -0.2)">
     <use xlink:href="#TimesNewRomanPS-BoldMT-49"/>
     <use x="50" xlink:href="#TimesNewRomanPS-BoldMT-57"/>
    </g>
   </g>
   <g id="text_4">
    <!-- 126 -->
    <defs>
     <path d="M 41.40625 0 
L 2.4375 0 
L 2.4375 1.078125 
Q 20.359375 22.40625 24.1875 29.78125 
Q 28.03125 37.15625 28.03125 44.1875 
Q 28.03125 49.3125 24.859375 52.703125 
Q 21.6875 56.109375 17.09375 56.109375 
Q 9.578125 56.109375 5.421875 48.578125 
L 3.609375 49.21875 
Q 6.25 58.59375 11.625 63.078125 
Q 17 67.578125 24.03125 67.578125 
Q 29.046875 67.578125 33.203125 65.234375 
Q 37.359375 62.890625 39.703125 58.8125 
Q 42.046875 54.734375 42.046875 51.171875 
Q 42.046875 44.671875 38.421875 37.984375 
Q 33.5 28.953125 16.890625 12.796875 
L 31.203125 12.796875 
Q 36.46875 12.796875 38.0625 13.234375 
Q 39.65625 13.671875 40.671875 14.71875 
Q 41.703125 15.765625 43.359375 19.140625 
L 45.125 19.140625 
z
" id="TimesNewRomanPS-BoldMT-50"/>
     <path d="M 46.96875 67.578125 
L 46.96875 66.21875 
Q 38.140625 63.96875 32.78125 60.421875 
Q 27.4375 56.890625 24.328125 51.828125 
Q 21.234375 46.78125 19.53125 39.3125 
Q 21.6875 40.765625 23.09375 41.21875 
Q 26.265625 42.1875 29.5 42.1875 
Q 36.921875 42.1875 41.875 36.78125 
Q 46.828125 31.390625 46.828125 22.078125 
Q 46.828125 15.53125 44.140625 10.0625 
Q 41.453125 4.59375 36.515625 1.609375 
Q 31.59375 -1.375 25.984375 -1.375 
Q 19.875 -1.375 14.6875 1.96875 
Q 9.515625 5.328125 6.609375 11.765625 
Q 3.71875 18.21875 3.71875 25.78125 
Q 3.71875 36.921875 9.0625 46.515625 
Q 14.40625 56.109375 24.234375 61.796875 
Q 34.078125 67.484375 46.96875 67.578125 
z
M 18.890625 35.359375 
Q 18.5 28.609375 18.5 25.484375 
Q 18.5 18.75 19.796875 12.453125 
Q 21.09375 6.15625 23.34375 3.609375 
Q 24.953125 1.8125 27.15625 1.8125 
Q 29.390625 1.8125 31.140625 4.421875 
Q 32.90625 7.03125 32.90625 15.046875 
Q 32.90625 28.515625 29.640625 33.640625 
Q 27.546875 36.96875 23.96875 36.96875 
Q 22.015625 36.96875 18.890625 35.359375 
z
" id="TimesNewRomanPS-BoldMT-54"/>
    </defs>
    <g transform="translate(637.916389 432.991)scale(0.2 -0.2)">
     <use xlink:href="#TimesNewRomanPS-BoldMT-49"/>
     <use x="50" xlink:href="#TimesNewRomanPS-BoldMT-50"/>
     <use x="100" xlink:href="#TimesNewRomanPS-BoldMT-54"/>
    </g>
   </g>
   <g id="text_5">
    <!-- 26 -->
    <g transform="translate(483.717793 350.534038)scale(0.2 -0.2)">
     <use xlink:href="#TimesNewRomanPS-BoldMT-50"/>
     <use x="50" xlink:href="#TimesNewRomanPS-BoldMT-54"/>
    </g>
   </g>
   <g id="text_6">
    <!-- 208 -->
    <g transform="translate(639.99165 307.725891)scale(0.2 -0.2)">
     <use xlink:href="#TimesNewRomanPS-BoldMT-50"/>
     <use x="50" xlink:href="#TimesNewRomanPS-BoldMT-48"/>
     <use x="100" xlink:href="#TimesNewRomanPS-BoldMT-56"/>
    </g>
   </g>
   <g id="text_7">
    <!-- 120 -->
    <g transform="translate(531.328065 288.597503)scale(0.2 -0.2)">
     <use xlink:href="#TimesNewRomanPS-BoldMT-49"/>
     <use x="50" xlink:href="#TimesNewRomanPS-BoldMT-50"/>
     <use x="100" xlink:href="#TimesNewRomanPS-BoldMT-48"/>
    </g>
   </g>
   <g id="text_8">
    <!-- Trained on Human -->
    <defs>
     <path d="M 63.09375 66.21875 
L 63.09375 48.296875 
L 61.328125 48.296875 
Q 59.765625 54.5 57.859375 57.203125 
Q 55.953125 59.90625 52.640625 61.53125 
Q 50.78125 62.40625 46.140625 62.40625 
L 41.21875 62.40625 
L 41.21875 11.328125 
Q 41.21875 6.25 41.765625 4.984375 
Q 42.328125 3.71875 43.96875 2.765625 
Q 45.609375 1.8125 48.4375 1.8125 
L 50.640625 1.8125 
L 50.640625 0 
L 15.96875 0 
L 15.96875 1.8125 
L 18.171875 1.8125 
Q 21.046875 1.8125 22.796875 2.828125 
Q 24.078125 3.515625 24.8125 5.171875 
Q 25.34375 6.34375 25.34375 11.328125 
L 25.34375 62.40625 
L 20.5625 62.40625 
Q 13.875 62.40625 10.84375 59.578125 
Q 6.59375 55.609375 5.46875 48.296875 
L 3.609375 48.296875 
L 3.609375 66.21875 
z
" id="TimesNewRomanPS-BoldMT-84"/>
     <path d="M 22.3125 45.65625 
L 22.3125 35.296875 
Q 26.859375 42.390625 30.265625 44.703125 
Q 33.6875 47.015625 36.859375 47.015625 
Q 39.59375 47.015625 41.234375 45.328125 
Q 42.875 43.65625 42.875 40.578125 
Q 42.875 37.3125 41.28125 35.5 
Q 39.703125 33.6875 37.453125 33.6875 
Q 34.859375 33.6875 32.953125 35.34375 
Q 31.0625 37.015625 30.71875 37.203125 
Q 30.21875 37.5 29.59375 37.5 
Q 28.171875 37.5 26.90625 36.421875 
Q 24.90625 34.765625 23.875 31.6875 
Q 22.3125 26.953125 22.3125 21.234375 
L 22.3125 10.75 
L 22.359375 8.015625 
Q 22.359375 5.21875 22.703125 4.4375 
Q 23.296875 3.125 24.4375 2.515625 
Q 25.59375 1.90625 28.328125 1.765625 
L 28.328125 0 
L 3.65625 0 
L 3.65625 1.765625 
Q 6.640625 2 7.6875 3.390625 
Q 8.734375 4.78125 8.734375 10.75 
L 8.734375 35.984375 
Q 8.734375 39.890625 8.34375 40.96875 
Q 7.859375 42.328125 6.921875 42.96875 
Q 6 43.609375 3.65625 43.84375 
L 3.65625 45.65625 
z
" id="TimesNewRomanPS-BoldMT-114"/>
     <path d="M 28.5625 6.734375 
Q 20.21875 -0.640625 13.578125 -0.640625 
Q 9.671875 -0.640625 7.078125 1.921875 
Q 4.5 4.5 4.5 8.34375 
Q 4.5 13.578125 8.984375 17.75 
Q 13.484375 21.921875 28.5625 28.859375 
L 28.5625 33.453125 
Q 28.5625 38.625 28 39.96875 
Q 27.4375 41.3125 25.875 42.3125 
Q 24.3125 43.3125 22.359375 43.3125 
Q 19.1875 43.3125 17.140625 41.890625 
Q 15.875 41.015625 15.875 39.84375 
Q 15.875 38.8125 17.234375 37.3125 
Q 19.09375 35.203125 19.09375 33.25 
Q 19.09375 30.859375 17.3125 29.171875 
Q 15.53125 27.484375 12.640625 27.484375 
Q 9.578125 27.484375 7.5 29.34375 
Q 5.421875 31.203125 5.421875 33.6875 
Q 5.421875 37.203125 8.203125 40.40625 
Q 10.984375 43.609375 15.96875 45.3125 
Q 20.953125 47.015625 26.3125 47.015625 
Q 32.8125 47.015625 36.59375 44.25 
Q 40.375 41.5 41.5 38.28125 
Q 42.1875 36.234375 42.1875 28.859375 
L 42.1875 11.140625 
Q 42.1875 8.015625 42.421875 7.203125 
Q 42.671875 6.390625 43.15625 6 
Q 43.65625 5.609375 44.28125 5.609375 
Q 45.5625 5.609375 46.875 7.421875 
L 48.34375 6.25 
Q 45.90625 2.640625 43.28125 1 
Q 40.671875 -0.640625 37.359375 -0.640625 
Q 33.453125 -0.640625 31.25 1.1875 
Q 29.046875 3.03125 28.5625 6.734375 
z
M 28.5625 10.296875 
L 28.5625 25.59375 
Q 22.65625 22.125 19.78125 18.171875 
Q 17.875 15.53125 17.875 12.84375 
Q 17.875 10.59375 19.484375 8.890625 
Q 20.703125 7.5625 22.90625 7.5625 
Q 25.34375 7.5625 28.5625 10.296875 
z
" id="TimesNewRomanPS-BoldMT-97"/>
     <path d="M 14.359375 67.78125 
Q 17.53125 67.78125 19.71875 65.546875 
Q 21.921875 63.328125 21.921875 60.203125 
Q 21.921875 57.078125 19.703125 54.875 
Q 17.484375 52.6875 14.359375 52.6875 
Q 11.234375 52.6875 9.03125 54.875 
Q 6.84375 57.078125 6.84375 60.203125 
Q 6.84375 63.328125 9.03125 65.546875 
Q 11.234375 67.78125 14.359375 67.78125 
z
M 21.1875 45.65625 
L 21.1875 9.46875 
Q 21.1875 4.640625 22.3125 3.296875 
Q 23.4375 1.953125 26.703125 1.765625 
L 26.703125 0 
L 2.046875 0 
L 2.046875 1.765625 
Q 5.078125 1.859375 6.546875 3.515625 
Q 7.515625 4.640625 7.515625 9.46875 
L 7.515625 36.140625 
Q 7.515625 40.96875 6.390625 42.3125 
Q 5.28125 43.65625 2.046875 43.84375 
L 2.046875 45.65625 
z
" id="TimesNewRomanPS-BoldMT-105"/>
     <path d="M 22.015625 45.65625 
L 22.015625 39.75 
Q 25.53125 43.5625 28.75 45.28125 
Q 31.984375 47.015625 35.6875 47.015625 
Q 40.140625 47.015625 43.0625 44.546875 
Q 46 42.09375 46.96875 38.421875 
Q 47.75 35.640625 47.75 27.734375 
L 47.75 9.96875 
Q 47.75 4.6875 48.703125 3.390625 
Q 49.65625 2.09375 52.6875 1.765625 
L 52.6875 0 
L 29.59375 0 
L 29.59375 1.765625 
Q 32.171875 2.09375 33.296875 3.90625 
Q 34.078125 5.125 34.078125 9.96875 
L 34.078125 30.28125 
Q 34.078125 35.890625 33.640625 37.34375 
Q 33.203125 38.8125 32.15625 39.625 
Q 31.109375 40.4375 29.828125 40.4375 
Q 25.640625 40.4375 22.015625 34.421875 
L 22.015625 9.96875 
Q 22.015625 4.828125 22.96875 3.453125 
Q 23.921875 2.09375 26.515625 1.765625 
L 26.515625 0 
L 3.421875 0 
L 3.421875 1.765625 
Q 6.296875 2.046875 7.515625 3.609375 
Q 8.34375 4.6875 8.34375 9.96875 
L 8.34375 35.75 
Q 8.34375 40.921875 7.390625 42.1875 
Q 6.453125 43.453125 3.421875 43.84375 
L 3.421875 45.65625 
z
" id="TimesNewRomanPS-BoldMT-110"/>
     <path d="M 42.046875 24.46875 
L 17 24.46875 
Q 17.4375 15.375 21.828125 10.109375 
Q 25.203125 6.0625 29.9375 6.0625 
Q 32.859375 6.0625 35.25 7.6875 
Q 37.640625 9.328125 40.375 13.578125 
L 42.046875 12.5 
Q 38.328125 4.9375 33.828125 1.78125 
Q 29.34375 -1.375 23.4375 -1.375 
Q 13.28125 -1.375 8.0625 6.453125 
Q 3.859375 12.75 3.859375 22.078125 
Q 3.859375 33.5 10.03125 40.25 
Q 16.21875 47.015625 24.515625 47.015625 
Q 31.453125 47.015625 36.546875 41.328125 
Q 41.65625 35.640625 42.046875 24.46875 
z
M 30.03125 27.734375 
Q 30.03125 35.59375 29.171875 38.515625 
Q 28.328125 41.453125 26.515625 42.96875 
Q 25.484375 43.84375 23.78125 43.84375 
Q 21.234375 43.84375 19.625 41.359375 
Q 16.75 37.015625 16.75 29.4375 
L 16.75 27.734375 
z
" id="TimesNewRomanPS-BoldMT-101"/>
     <path d="M 47.75 66.21875 
L 47.75 13.671875 
Q 47.75 8.34375 48.046875 7.375 
Q 48.4375 5.765625 49.53125 4.984375 
Q 50.640625 4.203125 53.375 4 
L 53.375 2.390625 
L 34.078125 -1.375 
L 34.078125 5.859375 
Q 30.609375 1.65625 27.90625 0.140625 
Q 25.203125 -1.375 21.78125 -1.375 
Q 13.03125 -1.375 7.953125 6.453125 
Q 3.859375 12.796875 3.859375 22.015625 
Q 3.859375 29.390625 6.390625 35.21875 
Q 8.9375 41.0625 13.359375 44.03125 
Q 17.78125 47.015625 22.859375 47.015625 
Q 26.125 47.015625 28.65625 45.75 
Q 31.203125 44.484375 34.078125 41.3125 
L 34.078125 55.078125 
Q 34.078125 60.296875 33.640625 61.375 
Q 33.0625 62.796875 31.890625 63.46875 
Q 30.71875 64.15625 27.484375 64.15625 
L 27.484375 66.21875 
z
M 34.078125 35.25 
Q 30.46875 42.1875 25.25 42.1875 
Q 23.4375 42.1875 22.265625 41.21875 
Q 20.453125 39.703125 19.3125 35.890625 
Q 18.171875 32.078125 18.171875 24.21875 
Q 18.171875 15.578125 19.4375 11.421875 
Q 20.703125 7.28125 22.90625 5.421875 
Q 24.03125 4.5 25.984375 4.5 
Q 30.28125 4.5 34.078125 11.234375 
z
" id="TimesNewRomanPS-BoldMT-100"/>
     <path id="TimesNewRomanPS-BoldMT-32"/>
     <path d="M 24.90625 47.015625 
Q 30.859375 47.015625 35.984375 43.9375 
Q 41.109375 40.875 43.765625 35.203125 
Q 46.4375 29.546875 46.4375 22.796875 
Q 46.4375 13.09375 41.5 6.546875 
Q 35.546875 -1.375 25.046875 -1.375 
Q 14.75 -1.375 9.171875 5.859375 
Q 3.609375 13.09375 3.609375 22.609375 
Q 3.609375 32.421875 9.296875 39.71875 
Q 14.984375 47.015625 24.90625 47.015625 
z
M 25.09375 43.5625 
Q 22.609375 43.5625 20.828125 41.671875 
Q 19.046875 39.796875 18.484375 34.25 
Q 17.921875 28.71875 17.921875 18.84375 
Q 17.921875 13.625 18.609375 9.078125 
Q 19.140625 5.609375 20.890625 3.796875 
Q 22.65625 2 24.90625 2 
Q 27.09375 2 28.5625 3.21875 
Q 30.46875 4.890625 31.109375 7.859375 
Q 32.078125 12.5 32.078125 26.609375 
Q 32.078125 34.90625 31.140625 38 
Q 30.21875 41.109375 28.421875 42.53125 
Q 27.15625 43.5625 25.09375 43.5625 
z
" id="TimesNewRomanPS-BoldMT-111"/>
     <path d="M 27.34375 31.84375 
L 27.34375 11.328125 
Q 27.34375 6.25 27.90625 4.984375 
Q 28.46875 3.71875 30.09375 2.765625 
Q 31.734375 1.8125 34.515625 1.8125 
L 36.71875 1.8125 
L 36.71875 0 
L 2.09375 0 
L 2.09375 1.8125 
L 4.296875 1.8125 
Q 7.171875 1.8125 8.9375 2.828125 
Q 10.203125 3.515625 10.890625 5.171875 
Q 11.421875 6.34375 11.421875 11.328125 
L 11.421875 54.890625 
Q 11.421875 59.96875 10.890625 61.234375 
Q 10.359375 62.5 8.71875 63.453125 
Q 7.078125 64.40625 4.296875 64.40625 
L 2.09375 64.40625 
L 2.09375 66.21875 
L 36.71875 66.21875 
L 36.71875 64.40625 
L 34.515625 64.40625 
Q 31.640625 64.40625 29.890625 63.375 
Q 28.609375 62.703125 27.875 61.03125 
Q 27.34375 59.859375 27.34375 54.890625 
L 27.34375 36.140625 
L 50.734375 36.140625 
L 50.734375 54.890625 
Q 50.734375 59.96875 50.1875 61.234375 
Q 49.65625 62.5 48 63.453125 
Q 46.34375 64.40625 43.5625 64.40625 
L 41.40625 64.40625 
L 41.40625 66.21875 
L 75.984375 66.21875 
L 75.984375 64.40625 
L 73.828125 64.40625 
Q 70.90625 64.40625 69.1875 63.375 
Q 67.921875 62.703125 67.1875 61.03125 
Q 66.65625 59.859375 66.65625 54.890625 
L 66.65625 11.328125 
Q 66.65625 6.25 67.1875 4.984375 
Q 67.71875 3.71875 69.375 2.765625 
Q 71.046875 1.8125 73.828125 1.8125 
L 75.984375 1.8125 
L 75.984375 0 
L 41.40625 0 
L 41.40625 1.8125 
L 43.5625 1.8125 
Q 46.484375 1.8125 48.1875 2.828125 
Q 49.46875 3.515625 50.203125 5.171875 
Q 50.734375 6.34375 50.734375 11.328125 
L 50.734375 31.84375 
z
" id="TimesNewRomanPS-BoldMT-72"/>
     <path d="M 47.46875 45.65625 
L 47.46875 9.90625 
Q 47.46875 4.6875 48.4375 3.390625 
Q 49.421875 2.09375 52.390625 1.765625 
L 52.390625 0 
L 33.796875 0 
L 33.796875 6.109375 
Q 30.515625 2.203125 27.234375 0.40625 
Q 23.96875 -1.375 19.921875 -1.375 
Q 16.0625 -1.375 13.0625 1 
Q 10.0625 3.375 9.03125 6.546875 
Q 8.015625 9.71875 8.015625 17.625 
L 8.015625 35.75 
Q 8.015625 40.921875 7.0625 42.1875 
Q 6.109375 43.453125 3.078125 43.84375 
L 3.078125 45.65625 
L 21.6875 45.65625 
L 21.6875 14.453125 
Q 21.6875 9.578125 22.140625 8.15625 
Q 22.609375 6.734375 23.609375 6 
Q 24.609375 5.28125 25.921875 5.28125 
Q 27.6875 5.28125 29.109375 6.203125 
Q 31.0625 7.46875 33.796875 11.328125 
L 33.796875 35.75 
Q 33.796875 40.921875 32.84375 42.1875 
Q 31.890625 43.453125 28.859375 43.84375 
L 28.859375 45.65625 
z
" id="TimesNewRomanPS-BoldMT-117"/>
     <path d="M 22.3125 45.65625 
L 22.3125 39.65625 
Q 26.078125 43.75 29.265625 45.375 
Q 32.46875 47.015625 36.28125 47.015625 
Q 40.671875 47.015625 43.640625 44.96875 
Q 46.625 42.921875 48.25 38.71875 
Q 52.15625 43.109375 55.734375 45.0625 
Q 59.328125 47.015625 63.234375 47.015625 
Q 67.96875 47.015625 70.765625 44.84375 
Q 73.578125 42.671875 74.671875 39.328125 
Q 75.78125 35.984375 75.78125 28.65625 
L 75.78125 9.96875 
Q 75.78125 4.6875 76.734375 3.421875 
Q 77.6875 2.15625 80.71875 1.765625 
L 80.71875 0 
L 57.125 0 
L 57.125 1.765625 
Q 59.90625 2 61.234375 3.90625 
Q 62.109375 5.21875 62.109375 9.96875 
L 62.109375 29.59375 
Q 62.109375 35.6875 61.625 37.34375 
Q 61.140625 39.015625 60.078125 39.8125 
Q 59.03125 40.625 57.625 40.625 
Q 55.515625 40.625 53.359375 39.078125 
Q 51.21875 37.546875 49.03125 34.46875 
L 49.03125 9.96875 
Q 49.03125 5.03125 49.859375 3.765625 
Q 50.984375 1.953125 54.15625 1.765625 
L 54.15625 0 
L 30.515625 0 
L 30.515625 1.765625 
Q 32.421875 1.859375 33.515625 2.703125 
Q 34.625 3.5625 34.984375 4.75 
Q 35.359375 5.953125 35.359375 9.96875 
L 35.359375 29.59375 
Q 35.359375 35.796875 34.859375 37.359375 
Q 34.375 38.921875 33.21875 39.796875 
Q 32.078125 40.671875 30.765625 40.671875 
Q 28.8125 40.671875 27.203125 39.65625 
Q 24.90625 38.140625 22.3125 34.46875 
L 22.3125 9.96875 
Q 22.3125 5.125 23.265625 3.578125 
Q 24.21875 2.046875 27.25 1.765625 
L 27.25 0 
L 3.71875 0 
L 3.71875 1.765625 
Q 6.59375 2.046875 7.8125 3.609375 
Q 8.640625 4.6875 8.640625 9.96875 
L 8.640625 35.75 
Q 8.640625 40.921875 7.6875 42.1875 
Q 6.734375 43.453125 3.71875 43.84375 
L 3.71875 45.65625 
z
" id="TimesNewRomanPS-BoldMT-109"/>
    </defs>
    <g transform="translate(192.588916 105.905097)scale(0.2 -0.2)">
     <use xlink:href="#TimesNewRomanPS-BoldMT-84"/>
     <use x="66.589844" xlink:href="#TimesNewRomanPS-BoldMT-114"/>
     <use x="110.974609" xlink:href="#TimesNewRomanPS-BoldMT-97"/>
     <use x="160.974609" xlink:href="#TimesNewRomanPS-BoldMT-105"/>
     <use x="188.757812" xlink:href="#TimesNewRomanPS-BoldMT-110"/>
     <use x="244.373047" xlink:href="#TimesNewRomanPS-BoldMT-101"/>
     <use x="288.757812" xlink:href="#TimesNewRomanPS-BoldMT-100"/>
     <use x="344.373047" xlink:href="#TimesNewRomanPS-BoldMT-32"/>
     <use x="369.373047" xlink:href="#TimesNewRomanPS-BoldMT-111"/>
     <use x="419.373047" xlink:href="#TimesNewRomanPS-BoldMT-110"/>
     <use x="474.988281" xlink:href="#TimesNewRomanPS-BoldMT-32"/>
     <use x="499.988281" xlink:href="#TimesNewRomanPS-BoldMT-72"/>
     <use x="577.771484" xlink:href="#TimesNewRomanPS-BoldMT-117"/>
     <use x="633.386719" xlink:href="#TimesNewRomanPS-BoldMT-109"/>
     <use x="716.6875" xlink:href="#TimesNewRomanPS-BoldMT-97"/>
     <use x="766.6875" xlink:href="#TimesNewRomanPS-BoldMT-110"/>
    </g>
   </g>
   <g id="text_9">
    <!-- Trained on E.coli -->
    <defs>
     <path d="M 27.25 62.40625 
L 27.25 35.453125 
L 28.5625 35.453125 
Q 34.859375 35.453125 37.6875 39.40625 
Q 40.53125 43.359375 41.3125 51.078125 
L 43.171875 51.078125 
L 43.171875 16.40625 
L 41.3125 16.40625 
Q 40.71875 22.078125 38.84375 25.6875 
Q 36.96875 29.296875 34.46875 30.53125 
Q 31.984375 31.78125 27.25 31.78125 
L 27.25 13.140625 
Q 27.25 7.671875 27.703125 6.4375 
Q 28.171875 5.21875 29.4375 4.4375 
Q 30.71875 3.65625 33.546875 3.65625 
L 37.5 3.65625 
Q 46.78125 3.65625 52.359375 7.953125 
Q 57.953125 12.25 60.40625 21.046875 
L 62.203125 21.046875 
L 59.234375 0 
L 2 0 
L 2 1.8125 
L 4.203125 1.8125 
Q 7.078125 1.8125 8.84375 2.828125 
Q 10.109375 3.515625 10.796875 5.171875 
Q 11.328125 6.34375 11.328125 11.328125 
L 11.328125 54.890625 
Q 11.328125 59.375 11.078125 60.40625 
Q 10.59375 62.109375 9.28125 63.03125 
Q 7.421875 64.40625 4.203125 64.40625 
L 2 64.40625 
L 2 66.21875 
L 57.421875 66.21875 
L 57.421875 46.625 
L 55.5625 46.625 
Q 54.15625 53.8125 51.59375 56.9375 
Q 49.03125 60.0625 44.34375 61.53125 
Q 41.609375 62.40625 34.078125 62.40625 
z
" id="TimesNewRomanPS-BoldMT-69"/>
     <path d="M 12.5 15.046875 
Q 15.921875 15.046875 18.28125 12.640625 
Q 20.65625 10.25 20.65625 6.890625 
Q 20.65625 3.515625 18.265625 1.140625 
Q 15.875 -1.21875 12.5 -1.21875 
Q 9.125 -1.21875 6.75 1.140625 
Q 4.390625 3.515625 4.390625 6.890625 
Q 4.390625 10.25 6.75 12.640625 
Q 9.125 15.046875 12.5 15.046875 
z
" id="TimesNewRomanPS-BoldMT-46"/>
     <path d="M 40.625 11.765625 
L 42.140625 10.59375 
Q 38.921875 4.546875 34.109375 1.578125 
Q 29.296875 -1.375 23.875 -1.375 
Q 14.75 -1.375 9.28125 5.515625 
Q 3.8125 12.40625 3.8125 22.078125 
Q 3.8125 31.390625 8.796875 38.484375 
Q 14.796875 47.015625 25.34375 47.015625 
Q 32.421875 47.015625 36.59375 43.453125 
Q 40.765625 39.890625 40.765625 35.5 
Q 40.765625 32.71875 39.078125 31.046875 
Q 37.40625 29.390625 34.671875 29.390625 
Q 31.78125 29.390625 29.90625 31.296875 
Q 28.03125 33.203125 27.59375 38.09375 
Q 27.296875 41.15625 26.171875 42.390625 
Q 25.046875 43.609375 23.53125 43.609375 
Q 21.1875 43.609375 19.53125 41.109375 
Q 17 37.359375 17 29.59375 
Q 17 23.140625 19.046875 17.25 
Q 21.09375 11.375 24.65625 8.5 
Q 27.34375 6.390625 31 6.390625 
Q 33.40625 6.390625 35.546875 7.515625 
Q 37.703125 8.640625 40.625 11.765625 
z
" id="TimesNewRomanPS-BoldMT-99"/>
     <path d="M 21.234375 66.21875 
L 21.234375 9.46875 
Q 21.234375 4.640625 22.359375 3.296875 
Q 23.484375 1.953125 26.765625 1.765625 
L 26.765625 0 
L 2.09375 0 
L 2.09375 1.765625 
Q 5.125 1.859375 6.59375 3.515625 
Q 7.5625 4.640625 7.5625 9.46875 
L 7.5625 56.734375 
Q 7.5625 61.53125 6.4375 62.859375 
Q 5.328125 64.203125 2.09375 64.40625 
L 2.09375 66.21875 
z
" id="TimesNewRomanPS-BoldMT-108"/>
    </defs>
    <g transform="translate(688.783881 131.163192)scale(0.2 -0.2)">
     <use xlink:href="#TimesNewRomanPS-BoldMT-84"/>
     <use x="66.589844" xlink:href="#TimesNewRomanPS-BoldMT-114"/>
     <use x="110.974609" xlink:href="#TimesNewRomanPS-BoldMT-97"/>
     <use x="160.974609" xlink:href="#TimesNewRomanPS-BoldMT-105"/>
     <use x="188.757812" xlink:href="#TimesNewRomanPS-BoldMT-110"/>
     <use x="244.373047" xlink:href="#TimesNewRomanPS-BoldMT-101"/>
     <use x="288.757812" xlink:href="#TimesNewRomanPS-BoldMT-100"/>
     <use x="344.373047" xlink:href="#TimesNewRomanPS-BoldMT-32"/>
     <use x="369.373047" xlink:href="#TimesNewRomanPS-BoldMT-111"/>
     <use x="419.373047" xlink:href="#TimesNewRomanPS-BoldMT-110"/>
     <use x="474.988281" xlink:href="#TimesNewRomanPS-BoldMT-32"/>
     <use x="499.988281" xlink:href="#TimesNewRomanPS-BoldMT-69"/>
     <use x="566.6875" xlink:href="#TimesNewRomanPS-BoldMT-46"/>
     <use x="591.6875" xlink:href="#TimesNewRomanPS-BoldMT-99"/>
     <use x="636.072266" xlink:href="#TimesNewRomanPS-BoldMT-111"/>
     <use x="686.072266" xlink:href="#TimesNewRomanPS-BoldMT-108"/>
     <use x="713.855469" xlink:href="#TimesNewRomanPS-BoldMT-105"/>
    </g>
   </g>
   <g id="text_10">
    <!-- Trained on Salmonella -->
    <defs>
     <path d="M 46.96875 67.71875 
L 47.515625 45.65625 
L 45.515625 45.65625 
Q 44.09375 53.953125 38.546875 59 
Q 33.015625 64.0625 26.5625 64.0625 
Q 21.578125 64.0625 18.671875 61.390625 
Q 15.765625 58.734375 15.765625 55.28125 
Q 15.765625 53.078125 16.796875 51.375 
Q 18.21875 49.078125 21.34375 46.828125 
Q 23.640625 45.21875 31.9375 41.109375 
Q 43.5625 35.40625 47.609375 30.328125 
Q 51.609375 25.25 51.609375 18.703125 
Q 51.609375 10.40625 45.140625 4.421875 
Q 38.671875 -1.5625 28.71875 -1.5625 
Q 25.59375 -1.5625 22.796875 -0.921875 
Q 20.015625 -0.296875 15.828125 1.46875 
Q 13.484375 2.4375 11.96875 2.4375 
Q 10.6875 2.4375 9.265625 1.453125 
Q 7.859375 0.484375 6.984375 -1.515625 
L 5.171875 -1.515625 
L 5.171875 23.484375 
L 6.984375 23.484375 
Q 9.125 12.9375 15.25 7.390625 
Q 21.390625 1.859375 28.46875 1.859375 
Q 33.9375 1.859375 37.1875 4.828125 
Q 40.4375 7.8125 40.4375 11.765625 
Q 40.4375 14.109375 39.1875 16.296875 
Q 37.9375 18.5 35.390625 20.484375 
Q 32.859375 22.46875 26.421875 25.640625 
Q 17.390625 30.078125 13.421875 33.203125 
Q 9.46875 36.328125 7.34375 40.1875 
Q 5.21875 44.046875 5.21875 48.6875 
Q 5.21875 56.59375 11.03125 62.15625 
Q 16.84375 67.71875 25.6875 67.71875 
Q 28.90625 67.71875 31.9375 66.9375 
Q 34.234375 66.359375 37.53125 64.765625 
Q 40.828125 63.1875 42.140625 63.1875 
Q 43.40625 63.1875 44.140625 63.96875 
Q 44.875 64.75 45.515625 67.71875 
z
" id="TimesNewRomanPS-BoldMT-83"/>
    </defs>
    <g transform="translate(513.625277 494.268947)scale(0.2 -0.2)">
     <use xlink:href="#TimesNewRomanPS-BoldMT-84"/>
     <use x="66.589844" xlink:href="#TimesNewRomanPS-BoldMT-114"/>
     <use x="110.974609" xlink:href="#TimesNewRomanPS-BoldMT-97"/>
     <use x="160.974609" xlink:href="#TimesNewRomanPS-BoldMT-105"/>
     <use x="188.757812" xlink:href="#TimesNewRomanPS-BoldMT-110"/>
     <use x="244.373047" xlink:href="#TimesNewRomanPS-BoldMT-101"/>
     <use x="288.757812" xlink:href="#TimesNewRomanPS-BoldMT-100"/>
     <use x="344.373047" xlink:href="#TimesNewRomanPS-BoldMT-32"/>
     <use x="369.373047" xlink:href="#TimesNewRomanPS-BoldMT-111"/>
     <use x="419.373047" xlink:href="#TimesNewRomanPS-BoldMT-110"/>
     <use x="474.988281" xlink:href="#TimesNewRomanPS-BoldMT-32"/>
     <use x="499.988281" xlink:href="#TimesNewRomanPS-BoldMT-83"/>
     <use x="555.603516" xlink:href="#TimesNewRomanPS-BoldMT-97"/>
     <use x="605.603516" xlink:href="#TimesNewRomanPS-BoldMT-108"/>
     <use x="633.386719" xlink:href="#TimesNewRomanPS-BoldMT-109"/>
     <use x="716.6875" xlink:href="#TimesNewRomanPS-BoldMT-111"/>
     <use x="766.6875" xlink:href="#TimesNewRomanPS-BoldMT-110"/>
     <use x="822.302734" xlink:href="#TimesNewRomanPS-BoldMT-101"/>
     <use x="866.6875" xlink:href="#TimesNewRomanPS-BoldMT-108"/>
     <use x="894.470703" xlink:href="#TimesNewRomanPS-BoldMT-108"/>
     <use x="922.253906" xlink:href="#TimesNewRomanPS-BoldMT-97"/>
    </g>
   </g>
  </g>
 </g>
 <defs>
  <clipPath id="p2160bef707">
   <rect height="434.88" width="552.396387" x="240.401807" y="69.12"/>
  </clipPath>
 </defs>
</svg>
