<?xml version="1.0" encoding="utf-8" standalone="no"?>
<!DOCTYPE svg PUBLIC "-//W3C//DTD SVG 1.1//EN"
  "http://www.w3.org/Graphics/SVG/1.1/DTD/svg11.dtd">
<!-- Created with matplotlib (https://matplotlib.org/) -->
<svg height="576pt" version="1.1" viewBox="0 0 1008 576" width="1008pt" xmlns="http://www.w3.org/2000/svg" xmlns:xlink="http://www.w3.org/1999/xlink">
 <defs>
  <style type="text/css">
*{stroke-linecap:butt;stroke-linejoin:round;}
  </style>
 </defs>
 <g id="figure_1">
  <g id="patch_1">
   <path d="M 0 576 
L 1008 576 
L 1008 0 
L 0 0 
z
" style="fill:#ffffff;"/>
  </g>
  <g id="axes_1">
   <g id="patch_2">
    <path clip-path="url(#pdce63a6ea2)" d="M 547.931567 153.727889 
C 526.061189 132.55598 498.798508 117.780773 469.120316 111.015562 
C 439.442123 104.250351 408.4694 105.750667 379.584035 115.35269 
C 350.69867 124.954714 324.991697 142.295766 305.270041 165.482389 
C 285.548386 188.669012 272.556959 216.82542 267.714284 246.877237 
C 262.871608 276.929053 266.360599 307.741185 277.800295 335.949279 
C 289.239991 364.157372 308.198302 388.695974 332.605184 406.885732 
C 357.012065 425.075491 385.945641 436.229357 416.246675 439.129449 
C 446.547708 442.029541 477.071695 436.566319 504.485742 423.336308 
C 478.149061 397.478063 462.269943 362.781335 459.915339 325.947581 
C 457.560736 289.113827 468.892671 252.677629 491.722451 223.67641 
C 497.042583 209.387317 504.623068 196.04487 514.173928 184.159456 
C 523.724789 172.274043 535.122669 161.999172 547.931567 153.727889 
" style="fill:#3d3e3d;opacity:0.4;stroke:#3d3e3d;stroke-linejoin:miter;"/>
   </g>
   <g id="patch_3">
    <path clip-path="url(#pdce63a6ea2)" d="M 547.931567 153.727889 
C 551.048464 156.745242 554.046258 159.883246 556.918088 163.134717 
C 559.789917 166.386188 562.533588 169.748643 565.142821 173.214385 
C 587.966458 166.144248 612.153287 164.63318 635.679427 168.807621 
C 659.205567 172.982062 681.395993 182.722237 700.393877 197.213118 
C 719.391761 211.703999 734.652004 230.529805 744.897677 252.115249 
C 755.14335 273.700694 760.080477 297.426435 759.295934 321.307174 
C 769.312422 293.286168 770.299104 262.818222 762.116582 234.207854 
C 753.934059 205.597486 736.986719 180.258644 713.668885 161.771204 
C 690.351051 143.283764 661.815108 132.561391 632.092622 131.118944 
C 602.370136 129.676497 572.930016 137.585263 547.931567 153.727889 
" style="fill:#ee7600;opacity:0.4;stroke:#ee7600;stroke-linejoin:miter;"/>
   </g>
   <g id="patch_4">
    <path clip-path="url(#pdce63a6ea2)" d="M 547.931567 153.727889 
C 535.122669 161.999172 523.724789 172.274043 514.173928 184.159456 
C 504.623068 196.04487 497.042583 209.387317 491.722451 223.67641 
C 501.065286 211.807983 512.148742 201.419746 524.596689 192.864238 
C 537.044636 184.308729 550.71465 177.683836 565.142821 173.214385 
C 562.533588 169.748643 559.789917 166.386188 556.918088 163.134717 
C 554.046258 159.883246 551.048464 156.745242 547.931567 153.727889 
" style="fill:#37652d;opacity:0.4;stroke:#37652d;stroke-linejoin:miter;"/>
   </g>
   <g id="patch_5">
    <path clip-path="url(#pdce63a6ea2)" d="M 504.485742 423.336308 
C 525.253768 443.72706 551.518259 457.633788 580.056282 463.349989 
C 608.594305 469.066189 638.188771 466.348078 665.208126 455.529197 
C 692.22748 444.710315 715.519402 426.252066 732.225725 402.419473 
C 748.932047 378.58688 758.34028 350.396355 759.295934 321.307174 
C 752.071489 341.517472 740.371005 359.835631 725.071732 374.888237 
C 709.772458 389.940844 691.266554 401.342062 670.941509 408.23708 
C 650.616464 415.132097 628.993259 417.344178 607.693106 414.707469 
C 586.392954 412.07076 565.961829 404.652848 547.931567 393.009894 
C 541.556473 399.181389 534.69829 404.833476 527.422556 409.912144 
C 520.146821 414.990812 512.476785 419.479832 504.485742 423.336308 
" style="fill:#031f6f;opacity:0.4;stroke:#031f6f;stroke-linejoin:miter;"/>
   </g>
   <g id="patch_6">
    <path clip-path="url(#pdce63a6ea2)" d="M 504.485742 423.336308 
C 512.476785 419.479832 520.146821 414.990812 527.422556 409.912144 
C 534.69829 404.833476 541.556473 399.181389 547.931567 393.009894 
C 520.680837 375.412868 500.243366 349.022783 490.023928 318.236086 
C 479.80449 287.449388 480.403954 254.076234 491.722451 223.67641 
C 468.892671 252.677629 457.560736 289.113827 459.915339 325.947581 
C 462.269943 362.781335 478.149061 397.478063 504.485742 423.336308 
" style="fill:#6e80b7;opacity:0.4;stroke:#6e80b7;stroke-linejoin:miter;"/>
   </g>
   <g id="patch_7">
    <path clip-path="url(#pdce63a6ea2)" d="M 565.142821 173.214385 
C 589.556176 205.641688 601.290076 245.902371 598.121351 286.368419 
C 594.952626 326.834466 577.094889 364.777954 547.931567 393.009894 
C 565.961829 404.652848 586.392954 412.07076 607.693106 414.707469 
C 628.993259 417.344178 650.616464 415.132097 670.941509 408.23708 
C 691.266554 401.342062 709.772458 389.940844 725.071732 374.888237 
C 740.371005 359.835631 752.071489 341.517472 759.295934 321.307174 
C 760.080477 297.426435 755.14335 273.700694 744.897677 252.115249 
C 734.652004 230.529805 719.391761 211.703999 700.393877 197.213118 
C 681.395993 182.722237 659.205567 172.982062 635.679427 168.807621 
C 612.153287 164.63318 587.966458 166.144248 565.142821 173.214385 
" style="fill:#4d2600;opacity:0.4;stroke:#4d2600;stroke-linejoin:miter;"/>
   </g>
   <g id="patch_8">
    <path clip-path="url(#pdce63a6ea2)" d="M 491.722451 223.67641 
C 480.403954 254.076234 479.80449 287.449388 490.023928 318.236086 
C 500.243366 349.022783 520.680837 375.412868 547.931567 393.009894 
C 577.094889 364.777954 594.952626 326.834466 598.121351 286.368419 
C 601.290076 245.902371 589.556176 205.641688 565.142821 173.214385 
C 550.71465 177.683836 537.044636 184.308729 524.596689 192.864238 
C 512.148742 201.419746 501.065286 211.807983 491.722451 223.67641 
" style="fill:#890707;opacity:0.4;stroke:#890707;stroke-linejoin:miter;"/>
   </g>
   <g id="text_1">
    <!-- 153 -->
    <defs>
     <path d="M 32.5625 67.578125 
L 32.5625 13.421875 
Q 32.5625 7.328125 33.09375 5.640625 
Q 33.640625 3.953125 35.34375 2.875 
Q 37.0625 1.8125 40.828125 1.8125 
L 42.328125 1.8125 
L 42.328125 0 
L 7.46875 0 
L 7.46875 1.8125 
L 9.234375 1.8125 
Q 13.484375 1.8125 15.28125 2.78125 
Q 17.09375 3.765625 17.71875 5.46875 
Q 18.359375 7.171875 18.359375 13.421875 
L 18.359375 47.75 
Q 18.359375 52.34375 17.921875 53.484375 
Q 17.484375 54.640625 16.28125 55.4375 
Q 15.09375 56.25 13.53125 56.25 
Q 11.03125 56.25 7.46875 54.6875 
L 6.59375 56.453125 
L 30.953125 67.578125 
z
" id="TimesNewRomanPS-BoldMT-49"/>
     <path d="M 15.234375 66.21875 
L 46.234375 66.21875 
L 41.3125 53.609375 
L 15.234375 53.609375 
L 12.75 47.015625 
Q 29.59375 46.390625 38.671875 38.625 
Q 46.140625 32.234375 46.140625 22.703125 
Q 46.140625 16.609375 42.671875 10.765625 
Q 39.203125 4.9375 32.90625 1.78125 
Q 26.609375 -1.375 19.09375 -1.375 
Q 10.984375 -1.375 6.640625 1.65625 
Q 3.609375 3.8125 3.609375 6.546875 
Q 3.609375 8.640625 5.1875 10.25 
Q 6.78125 11.859375 8.890625 11.859375 
Q 10.796875 11.859375 12.75 11.078125 
Q 14.703125 10.296875 19.4375 6.984375 
Q 22.40625 4.9375 24.5625 4.15625 
Q 26.078125 3.5625 27.984375 3.5625 
Q 31.984375 3.5625 34.78125 6.484375 
Q 37.59375 9.421875 37.59375 13.53125 
Q 37.59375 22.125 29 27.484375 
Q 20.40625 32.859375 7.328125 32.859375 
Q 6 32.859375 3.375 32.8125 
z
" id="TimesNewRomanPS-BoldMT-53"/>
     <path d="M 14.796875 33.203125 
L 14.796875 34.90625 
Q 20.359375 36.53125 22.5 37.921875 
Q 24.65625 39.3125 26.21875 42.15625 
Q 27.78125 45.015625 27.78125 47.953125 
Q 27.78125 52 24.828125 54.90625 
Q 21.875 57.8125 17.484375 57.8125 
Q 10.640625 57.8125 5.859375 50.59375 
L 4.046875 51.21875 
Q 7.5625 59.375 13.0625 63.46875 
Q 18.5625 67.578125 25.296875 67.578125 
Q 32.171875 67.578125 36.640625 63.375 
Q 41.109375 59.1875 41.109375 53.5625 
Q 41.109375 49.90625 39.03125 46.5 
Q 36.96875 43.109375 32.515625 40.53125 
Q 38.234375 37.75 41.234375 33.671875 
Q 44.234375 29.59375 44.234375 23.4375 
Q 44.234375 13.09375 36.734375 5.828125 
Q 29.25 -1.421875 16.65625 -1.421875 
Q 8.25 -1.421875 4.390625 1.375 
Q 1.609375 3.328125 1.609375 6.390625 
Q 1.609375 8.640625 3.21875 10.21875 
Q 4.828125 11.8125 6.9375 11.8125 
Q 8.546875 11.8125 9.96875 11.140625 
Q 10.75 10.75 15.5 6.859375 
Q 20.265625 2.984375 24.421875 2.984375 
Q 28.03125 2.984375 30.609375 5.828125 
Q 33.203125 8.6875 33.203125 13.09375 
Q 33.203125 19.78125 28.515625 25.421875 
Q 23.828125 31.0625 14.796875 33.203125 
z
" id="TimesNewRomanPS-BoldMT-51"/>
    </defs>
    <g transform="translate(320.621329 263.019856)scale(0.2 -0.2)">
     <use xlink:href="#TimesNewRomanPS-BoldMT-49"/>
     <use x="50" xlink:href="#TimesNewRomanPS-BoldMT-53"/>
     <use x="100" xlink:href="#TimesNewRomanPS-BoldMT-51"/>
    </g>
   </g>
   <g id="text_2">
    <!-- 22 -->
    <defs>
     <path d="M 41.40625 0 
L 2.4375 0 
L 2.4375 1.078125 
Q 20.359375 22.40625 24.1875 29.78125 
Q 28.03125 37.15625 28.03125 44.1875 
Q 28.03125 49.3125 24.859375 52.703125 
Q 21.6875 56.109375 17.09375 56.109375 
Q 9.578125 56.109375 5.421875 48.578125 
L 3.609375 49.21875 
Q 6.25 58.59375 11.625 63.078125 
Q 17 67.578125 24.03125 67.578125 
Q 29.046875 67.578125 33.203125 65.234375 
Q 37.359375 62.890625 39.703125 58.8125 
Q 42.046875 54.734375 42.046875 51.171875 
Q 42.046875 44.671875 38.421875 37.984375 
Q 33.5 28.953125 16.890625 12.796875 
L 31.203125 12.796875 
Q 36.46875 12.796875 38.0625 13.234375 
Q 39.65625 13.671875 40.671875 14.71875 
Q 41.703125 15.765625 43.359375 19.140625 
L 45.125 19.140625 
z
" id="TimesNewRomanPS-BoldMT-50"/>
    </defs>
    <g transform="translate(692.724043 181.139368)scale(0.2 -0.2)">
     <use xlink:href="#TimesNewRomanPS-BoldMT-50"/>
     <use x="50" xlink:href="#TimesNewRomanPS-BoldMT-50"/>
    </g>
   </g>
   <g id="text_3">
    <!-- 3 -->
    <g transform="translate(518.433516 190.046762)scale(0.2 -0.2)">
     <use xlink:href="#TimesNewRomanPS-BoldMT-51"/>
    </g>
   </g>
   <g id="text_4">
    <!-- 27 -->
    <defs>
     <path d="M 17.71875 -1.375 
L 35.75 53.265625 
L 22.015625 53.265625 
Q 13.96875 53.265625 9.90625 51.171875 
Q 7.078125 49.703125 5.21875 45.65625 
L 3.375 45.65625 
L 8.15625 66.21875 
L 47.609375 66.21875 
L 25.390625 -1.375 
z
" id="TimesNewRomanPS-BoldMT-55"/>
    </defs>
    <g transform="translate(647.608079 437.51992)scale(0.2 -0.2)">
     <use xlink:href="#TimesNewRomanPS-BoldMT-50"/>
     <use x="50" xlink:href="#TimesNewRomanPS-BoldMT-55"/>
    </g>
   </g>
   <g id="text_5">
    <!-- 15 -->
    <g transform="translate(469.799504 335.658756)scale(0.2 -0.2)">
     <use xlink:href="#TimesNewRomanPS-BoldMT-49"/>
     <use x="50" xlink:href="#TimesNewRomanPS-BoldMT-53"/>
    </g>
   </g>
   <g id="text_6">
    <!-- 88 -->
    <defs>
     <path d="M 34.078125 37.40625 
Q 41.0625 32.28125 43.765625 27.859375 
Q 46.484375 23.4375 46.484375 17.71875 
Q 46.484375 9.71875 40.453125 4.171875 
Q 34.421875 -1.375 24.078125 -1.375 
Q 14.265625 -1.375 8.890625 3.453125 
Q 3.515625 8.296875 3.515625 15.28125 
Q 3.515625 20.609375 6.609375 24.609375 
Q 9.71875 28.609375 16.9375 31.9375 
Q 9.078125 37.9375 6.859375 41.75 
Q 4.640625 45.5625 4.640625 50.59375 
Q 4.640625 57.234375 10.28125 62.28125 
Q 15.921875 67.328125 25.734375 67.328125 
Q 35.203125 67.328125 40.296875 62.859375 
Q 45.40625 58.40625 45.40625 52.15625 
Q 45.40625 47.46875 42.640625 43.875 
Q 39.890625 40.28125 34.078125 37.40625 
z
M 30.375 39.890625 
Q 32.171875 42.328125 33.046875 45.359375 
Q 33.9375 48.390625 33.9375 52 
Q 33.9375 58.34375 31.203125 61.71875 
Q 29.15625 64.3125 25.53125 64.3125 
Q 22.265625 64.3125 19.96875 61.9375 
Q 17.671875 59.578125 17.671875 56.0625 
Q 17.671875 52.484375 20.234375 48.65625 
Q 22.796875 44.828125 30.375 39.890625 
z
M 20.609375 29.59375 
Q 19.09375 28.21875 18.453125 27.09375 
Q 17.484375 25.390625 16.703125 22.109375 
Q 15.921875 18.84375 15.921875 15.28125 
Q 15.921875 10.6875 17.09375 7.59375 
Q 18.265625 4.5 20.4375 3.125 
Q 22.609375 1.765625 24.90625 1.765625 
Q 28.46875 1.765625 30.90625 4.375 
Q 33.34375 6.984375 33.34375 11.53125 
Q 33.34375 21 20.609375 29.59375 
z
" id="TimesNewRomanPS-BoldMT-56"/>
    </defs>
    <g transform="translate(651.374239 300.501019)scale(0.2 -0.2)">
     <use xlink:href="#TimesNewRomanPS-BoldMT-56"/>
     <use x="50" xlink:href="#TimesNewRomanPS-BoldMT-56"/>
    </g>
   </g>
   <g id="text_7">
    <!-- 45 -->
    <defs>
     <path d="M 2.484375 24.953125 
L 33.9375 67.578125 
L 39.890625 67.578125 
L 39.890625 24.953125 
L 45.953125 24.953125 
L 45.953125 14.84375 
L 39.890625 14.84375 
L 39.890625 0 
L 26.46875 0 
L 26.46875 14.84375 
L 2.484375 14.84375 
z
M 7.234375 24.953125 
L 26.46875 24.953125 
L 26.46875 51.078125 
z
" id="TimesNewRomanPS-BoldMT-52"/>
    </defs>
    <g transform="translate(532.098361 286.948203)scale(0.2 -0.2)">
     <use xlink:href="#TimesNewRomanPS-BoldMT-52"/>
     <use x="50" xlink:href="#TimesNewRomanPS-BoldMT-53"/>
    </g>
   </g>
   <g id="text_8">
    <!-- Trained on Human -->
    <defs>
     <path d="M 63.09375 66.21875 
L 63.09375 48.296875 
L 61.328125 48.296875 
Q 59.765625 54.5 57.859375 57.203125 
Q 55.953125 59.90625 52.640625 61.53125 
Q 50.78125 62.40625 46.140625 62.40625 
L 41.21875 62.40625 
L 41.21875 11.328125 
Q 41.21875 6.25 41.765625 4.984375 
Q 42.328125 3.71875 43.96875 2.765625 
Q 45.609375 1.8125 48.4375 1.8125 
L 50.640625 1.8125 
L 50.640625 0 
L 15.96875 0 
L 15.96875 1.8125 
L 18.171875 1.8125 
Q 21.046875 1.8125 22.796875 2.828125 
Q 24.078125 3.515625 24.8125 5.171875 
Q 25.34375 6.34375 25.34375 11.328125 
L 25.34375 62.40625 
L 20.5625 62.40625 
Q 13.875 62.40625 10.84375 59.578125 
Q 6.59375 55.609375 5.46875 48.296875 
L 3.609375 48.296875 
L 3.609375 66.21875 
z
" id="TimesNewRomanPS-BoldMT-84"/>
     <path d="M 22.3125 45.65625 
L 22.3125 35.296875 
Q 26.859375 42.390625 30.265625 44.703125 
Q 33.6875 47.015625 36.859375 47.015625 
Q 39.59375 47.015625 41.234375 45.328125 
Q 42.875 43.65625 42.875 40.578125 
Q 42.875 37.3125 41.28125 35.5 
Q 39.703125 33.6875 37.453125 33.6875 
Q 34.859375 33.6875 32.953125 35.34375 
Q 31.0625 37.015625 30.71875 37.203125 
Q 30.21875 37.5 29.59375 37.5 
Q 28.171875 37.5 26.90625 36.421875 
Q 24.90625 34.765625 23.875 31.6875 
Q 22.3125 26.953125 22.3125 21.234375 
L 22.3125 10.75 
L 22.359375 8.015625 
Q 22.359375 5.21875 22.703125 4.4375 
Q 23.296875 3.125 24.4375 2.515625 
Q 25.59375 1.90625 28.328125 1.765625 
L 28.328125 0 
L 3.65625 0 
L 3.65625 1.765625 
Q 6.640625 2 7.6875 3.390625 
Q 8.734375 4.78125 8.734375 10.75 
L 8.734375 35.984375 
Q 8.734375 39.890625 8.34375 40.96875 
Q 7.859375 42.328125 6.921875 42.96875 
Q 6 43.609375 3.65625 43.84375 
L 3.65625 45.65625 
z
" id="TimesNewRomanPS-BoldMT-114"/>
     <path d="M 28.5625 6.734375 
Q 20.21875 -0.640625 13.578125 -0.640625 
Q 9.671875 -0.640625 7.078125 1.921875 
Q 4.5 4.5 4.5 8.34375 
Q 4.5 13.578125 8.984375 17.75 
Q 13.484375 21.921875 28.5625 28.859375 
L 28.5625 33.453125 
Q 28.5625 38.625 28 39.96875 
Q 27.4375 41.3125 25.875 42.3125 
Q 24.3125 43.3125 22.359375 43.3125 
Q 19.1875 43.3125 17.140625 41.890625 
Q 15.875 41.015625 15.875 39.84375 
Q 15.875 38.8125 17.234375 37.3125 
Q 19.09375 35.203125 19.09375 33.25 
Q 19.09375 30.859375 17.3125 29.171875 
Q 15.53125 27.484375 12.640625 27.484375 
Q 9.578125 27.484375 7.5 29.34375 
Q 5.421875 31.203125 5.421875 33.6875 
Q 5.421875 37.203125 8.203125 40.40625 
Q 10.984375 43.609375 15.96875 45.3125 
Q 20.953125 47.015625 26.3125 47.015625 
Q 32.8125 47.015625 36.59375 44.25 
Q 40.375 41.5 41.5 38.28125 
Q 42.1875 36.234375 42.1875 28.859375 
L 42.1875 11.140625 
Q 42.1875 8.015625 42.421875 7.203125 
Q 42.671875 6.390625 43.15625 6 
Q 43.65625 5.609375 44.28125 5.609375 
Q 45.5625 5.609375 46.875 7.421875 
L 48.34375 6.25 
Q 45.90625 2.640625 43.28125 1 
Q 40.671875 -0.640625 37.359375 -0.640625 
Q 33.453125 -0.640625 31.25 1.1875 
Q 29.046875 3.03125 28.5625 6.734375 
z
M 28.5625 10.296875 
L 28.5625 25.59375 
Q 22.65625 22.125 19.78125 18.171875 
Q 17.875 15.53125 17.875 12.84375 
Q 17.875 10.59375 19.484375 8.890625 
Q 20.703125 7.5625 22.90625 7.5625 
Q 25.34375 7.5625 28.5625 10.296875 
z
" id="TimesNewRomanPS-BoldMT-97"/>
     <path d="M 14.359375 67.78125 
Q 17.53125 67.78125 19.71875 65.546875 
Q 21.921875 63.328125 21.921875 60.203125 
Q 21.921875 57.078125 19.703125 54.875 
Q 17.484375 52.6875 14.359375 52.6875 
Q 11.234375 52.6875 9.03125 54.875 
Q 6.84375 57.078125 6.84375 60.203125 
Q 6.84375 63.328125 9.03125 65.546875 
Q 11.234375 67.78125 14.359375 67.78125 
z
M 21.1875 45.65625 
L 21.1875 9.46875 
Q 21.1875 4.640625 22.3125 3.296875 
Q 23.4375 1.953125 26.703125 1.765625 
L 26.703125 0 
L 2.046875 0 
L 2.046875 1.765625 
Q 5.078125 1.859375 6.546875 3.515625 
Q 7.515625 4.640625 7.515625 9.46875 
L 7.515625 36.140625 
Q 7.515625 40.96875 6.390625 42.3125 
Q 5.28125 43.65625 2.046875 43.84375 
L 2.046875 45.65625 
z
" id="TimesNewRomanPS-BoldMT-105"/>
     <path d="M 22.015625 45.65625 
L 22.015625 39.75 
Q 25.53125 43.5625 28.75 45.28125 
Q 31.984375 47.015625 35.6875 47.015625 
Q 40.140625 47.015625 43.0625 44.546875 
Q 46 42.09375 46.96875 38.421875 
Q 47.75 35.640625 47.75 27.734375 
L 47.75 9.96875 
Q 47.75 4.6875 48.703125 3.390625 
Q 49.65625 2.09375 52.6875 1.765625 
L 52.6875 0 
L 29.59375 0 
L 29.59375 1.765625 
Q 32.171875 2.09375 33.296875 3.90625 
Q 34.078125 5.125 34.078125 9.96875 
L 34.078125 30.28125 
Q 34.078125 35.890625 33.640625 37.34375 
Q 33.203125 38.8125 32.15625 39.625 
Q 31.109375 40.4375 29.828125 40.4375 
Q 25.640625 40.4375 22.015625 34.421875 
L 22.015625 9.96875 
Q 22.015625 4.828125 22.96875 3.453125 
Q 23.921875 2.09375 26.515625 1.765625 
L 26.515625 0 
L 3.421875 0 
L 3.421875 1.765625 
Q 6.296875 2.046875 7.515625 3.609375 
Q 8.34375 4.6875 8.34375 9.96875 
L 8.34375 35.75 
Q 8.34375 40.921875 7.390625 42.1875 
Q 6.453125 43.453125 3.421875 43.84375 
L 3.421875 45.65625 
z
" id="TimesNewRomanPS-BoldMT-110"/>
     <path d="M 42.046875 24.46875 
L 17 24.46875 
Q 17.4375 15.375 21.828125 10.109375 
Q 25.203125 6.0625 29.9375 6.0625 
Q 32.859375 6.0625 35.25 7.6875 
Q 37.640625 9.328125 40.375 13.578125 
L 42.046875 12.5 
Q 38.328125 4.9375 33.828125 1.78125 
Q 29.34375 -1.375 23.4375 -1.375 
Q 13.28125 -1.375 8.0625 6.453125 
Q 3.859375 12.75 3.859375 22.078125 
Q 3.859375 33.5 10.03125 40.25 
Q 16.21875 47.015625 24.515625 47.015625 
Q 31.453125 47.015625 36.546875 41.328125 
Q 41.65625 35.640625 42.046875 24.46875 
z
M 30.03125 27.734375 
Q 30.03125 35.59375 29.171875 38.515625 
Q 28.328125 41.453125 26.515625 42.96875 
Q 25.484375 43.84375 23.78125 43.84375 
Q 21.234375 43.84375 19.625 41.359375 
Q 16.75 37.015625 16.75 29.4375 
L 16.75 27.734375 
z
" id="TimesNewRomanPS-BoldMT-101"/>
     <path d="M 47.75 66.21875 
L 47.75 13.671875 
Q 47.75 8.34375 48.046875 7.375 
Q 48.4375 5.765625 49.53125 4.984375 
Q 50.640625 4.203125 53.375 4 
L 53.375 2.390625 
L 34.078125 -1.375 
L 34.078125 5.859375 
Q 30.609375 1.65625 27.90625 0.140625 
Q 25.203125 -1.375 21.78125 -1.375 
Q 13.03125 -1.375 7.953125 6.453125 
Q 3.859375 12.796875 3.859375 22.015625 
Q 3.859375 29.390625 6.390625 35.21875 
Q 8.9375 41.0625 13.359375 44.03125 
Q 17.78125 47.015625 22.859375 47.015625 
Q 26.125 47.015625 28.65625 45.75 
Q 31.203125 44.484375 34.078125 41.3125 
L 34.078125 55.078125 
Q 34.078125 60.296875 33.640625 61.375 
Q 33.0625 62.796875 31.890625 63.46875 
Q 30.71875 64.15625 27.484375 64.15625 
L 27.484375 66.21875 
z
M 34.078125 35.25 
Q 30.46875 42.1875 25.25 42.1875 
Q 23.4375 42.1875 22.265625 41.21875 
Q 20.453125 39.703125 19.3125 35.890625 
Q 18.171875 32.078125 18.171875 24.21875 
Q 18.171875 15.578125 19.4375 11.421875 
Q 20.703125 7.28125 22.90625 5.421875 
Q 24.03125 4.5 25.984375 4.5 
Q 30.28125 4.5 34.078125 11.234375 
z
" id="TimesNewRomanPS-BoldMT-100"/>
     <path id="TimesNewRomanPS-BoldMT-32"/>
     <path d="M 24.90625 47.015625 
Q 30.859375 47.015625 35.984375 43.9375 
Q 41.109375 40.875 43.765625 35.203125 
Q 46.4375 29.546875 46.4375 22.796875 
Q 46.4375 13.09375 41.5 6.546875 
Q 35.546875 -1.375 25.046875 -1.375 
Q 14.75 -1.375 9.171875 5.859375 
Q 3.609375 13.09375 3.609375 22.609375 
Q 3.609375 32.421875 9.296875 39.71875 
Q 14.984375 47.015625 24.90625 47.015625 
z
M 25.09375 43.5625 
Q 22.609375 43.5625 20.828125 41.671875 
Q 19.046875 39.796875 18.484375 34.25 
Q 17.921875 28.71875 17.921875 18.84375 
Q 17.921875 13.625 18.609375 9.078125 
Q 19.140625 5.609375 20.890625 3.796875 
Q 22.65625 2 24.90625 2 
Q 27.09375 2 28.5625 3.21875 
Q 30.46875 4.890625 31.109375 7.859375 
Q 32.078125 12.5 32.078125 26.609375 
Q 32.078125 34.90625 31.140625 38 
Q 30.21875 41.109375 28.421875 42.53125 
Q 27.15625 43.5625 25.09375 43.5625 
z
" id="TimesNewRomanPS-BoldMT-111"/>
     <path d="M 27.34375 31.84375 
L 27.34375 11.328125 
Q 27.34375 6.25 27.90625 4.984375 
Q 28.46875 3.71875 30.09375 2.765625 
Q 31.734375 1.8125 34.515625 1.8125 
L 36.71875 1.8125 
L 36.71875 0 
L 2.09375 0 
L 2.09375 1.8125 
L 4.296875 1.8125 
Q 7.171875 1.8125 8.9375 2.828125 
Q 10.203125 3.515625 10.890625 5.171875 
Q 11.421875 6.34375 11.421875 11.328125 
L 11.421875 54.890625 
Q 11.421875 59.96875 10.890625 61.234375 
Q 10.359375 62.5 8.71875 63.453125 
Q 7.078125 64.40625 4.296875 64.40625 
L 2.09375 64.40625 
L 2.09375 66.21875 
L 36.71875 66.21875 
L 36.71875 64.40625 
L 34.515625 64.40625 
Q 31.640625 64.40625 29.890625 63.375 
Q 28.609375 62.703125 27.875 61.03125 
Q 27.34375 59.859375 27.34375 54.890625 
L 27.34375 36.140625 
L 50.734375 36.140625 
L 50.734375 54.890625 
Q 50.734375 59.96875 50.1875 61.234375 
Q 49.65625 62.5 48 63.453125 
Q 46.34375 64.40625 43.5625 64.40625 
L 41.40625 64.40625 
L 41.40625 66.21875 
L 75.984375 66.21875 
L 75.984375 64.40625 
L 73.828125 64.40625 
Q 70.90625 64.40625 69.1875 63.375 
Q 67.921875 62.703125 67.1875 61.03125 
Q 66.65625 59.859375 66.65625 54.890625 
L 66.65625 11.328125 
Q 66.65625 6.25 67.1875 4.984375 
Q 67.71875 3.71875 69.375 2.765625 
Q 71.046875 1.8125 73.828125 1.8125 
L 75.984375 1.8125 
L 75.984375 0 
L 41.40625 0 
L 41.40625 1.8125 
L 43.5625 1.8125 
Q 46.484375 1.8125 48.1875 2.828125 
Q 49.46875 3.515625 50.203125 5.171875 
Q 50.734375 6.34375 50.734375 11.328125 
L 50.734375 31.84375 
z
" id="TimesNewRomanPS-BoldMT-72"/>
     <path d="M 47.46875 45.65625 
L 47.46875 9.90625 
Q 47.46875 4.6875 48.4375 3.390625 
Q 49.421875 2.09375 52.390625 1.765625 
L 52.390625 0 
L 33.796875 0 
L 33.796875 6.109375 
Q 30.515625 2.203125 27.234375 0.40625 
Q 23.96875 -1.375 19.921875 -1.375 
Q 16.0625 -1.375 13.0625 1 
Q 10.0625 3.375 9.03125 6.546875 
Q 8.015625 9.71875 8.015625 17.625 
L 8.015625 35.75 
Q 8.015625 40.921875 7.0625 42.1875 
Q 6.109375 43.453125 3.078125 43.84375 
L 3.078125 45.65625 
L 21.6875 45.65625 
L 21.6875 14.453125 
Q 21.6875 9.578125 22.140625 8.15625 
Q 22.609375 6.734375 23.609375 6 
Q 24.609375 5.28125 25.921875 5.28125 
Q 27.6875 5.28125 29.109375 6.203125 
Q 31.0625 7.46875 33.796875 11.328125 
L 33.796875 35.75 
Q 33.796875 40.921875 32.84375 42.1875 
Q 31.890625 43.453125 28.859375 43.84375 
L 28.859375 45.65625 
z
" id="TimesNewRomanPS-BoldMT-117"/>
     <path d="M 22.3125 45.65625 
L 22.3125 39.65625 
Q 26.078125 43.75 29.265625 45.375 
Q 32.46875 47.015625 36.28125 47.015625 
Q 40.671875 47.015625 43.640625 44.96875 
Q 46.625 42.921875 48.25 38.71875 
Q 52.15625 43.109375 55.734375 45.0625 
Q 59.328125 47.015625 63.234375 47.015625 
Q 67.96875 47.015625 70.765625 44.84375 
Q 73.578125 42.671875 74.671875 39.328125 
Q 75.78125 35.984375 75.78125 28.65625 
L 75.78125 9.96875 
Q 75.78125 4.6875 76.734375 3.421875 
Q 77.6875 2.15625 80.71875 1.765625 
L 80.71875 0 
L 57.125 0 
L 57.125 1.765625 
Q 59.90625 2 61.234375 3.90625 
Q 62.109375 5.21875 62.109375 9.96875 
L 62.109375 29.59375 
Q 62.109375 35.6875 61.625 37.34375 
Q 61.140625 39.015625 60.078125 39.8125 
Q 59.03125 40.625 57.625 40.625 
Q 55.515625 40.625 53.359375 39.078125 
Q 51.21875 37.546875 49.03125 34.46875 
L 49.03125 9.96875 
Q 49.03125 5.03125 49.859375 3.765625 
Q 50.984375 1.953125 54.15625 1.765625 
L 54.15625 0 
L 30.515625 0 
L 30.515625 1.765625 
Q 32.421875 1.859375 33.515625 2.703125 
Q 34.625 3.5625 34.984375 4.75 
Q 35.359375 5.953125 35.359375 9.96875 
L 35.359375 29.59375 
Q 35.359375 35.796875 34.859375 37.359375 
Q 34.375 38.921875 33.21875 39.796875 
Q 32.078125 40.671875 30.765625 40.671875 
Q 28.8125 40.671875 27.203125 39.65625 
Q 24.90625 38.140625 22.3125 34.46875 
L 22.3125 9.96875 
Q 22.3125 5.125 23.265625 3.578125 
Q 24.21875 2.046875 27.25 1.765625 
L 27.25 0 
L 3.71875 0 
L 3.71875 1.765625 
Q 6.59375 2.046875 7.8125 3.609375 
Q 8.640625 4.6875 8.640625 9.96875 
L 8.640625 35.75 
Q 8.640625 40.921875 7.6875 42.1875 
Q 6.734375 43.453125 3.71875 43.84375 
L 3.71875 45.65625 
z
" id="TimesNewRomanPS-BoldMT-109"/>
    </defs>
    <g transform="translate(184.396242 106.850858)scale(0.2 -0.2)">
     <use xlink:href="#TimesNewRomanPS-BoldMT-84"/>
     <use x="66.589844" xlink:href="#TimesNewRomanPS-BoldMT-114"/>
     <use x="110.974609" xlink:href="#TimesNewRomanPS-BoldMT-97"/>
     <use x="160.974609" xlink:href="#TimesNewRomanPS-BoldMT-105"/>
     <use x="188.757812" xlink:href="#TimesNewRomanPS-BoldMT-110"/>
     <use x="244.373047" xlink:href="#TimesNewRomanPS-BoldMT-101"/>
     <use x="288.757812" xlink:href="#TimesNewRomanPS-BoldMT-100"/>
     <use x="344.373047" xlink:href="#TimesNewRomanPS-BoldMT-32"/>
     <use x="369.373047" xlink:href="#TimesNewRomanPS-BoldMT-111"/>
     <use x="419.373047" xlink:href="#TimesNewRomanPS-BoldMT-110"/>
     <use x="474.988281" xlink:href="#TimesNewRomanPS-BoldMT-32"/>
     <use x="499.988281" xlink:href="#TimesNewRomanPS-BoldMT-72"/>
     <use x="577.771484" xlink:href="#TimesNewRomanPS-BoldMT-117"/>
     <use x="633.386719" xlink:href="#TimesNewRomanPS-BoldMT-109"/>
     <use x="716.6875" xlink:href="#TimesNewRomanPS-BoldMT-97"/>
     <use x="766.6875" xlink:href="#TimesNewRomanPS-BoldMT-110"/>
    </g>
   </g>
   <g id="text_9">
    <!-- Trained on E.coli -->
    <defs>
     <path d="M 27.25 62.40625 
L 27.25 35.453125 
L 28.5625 35.453125 
Q 34.859375 35.453125 37.6875 39.40625 
Q 40.53125 43.359375 41.3125 51.078125 
L 43.171875 51.078125 
L 43.171875 16.40625 
L 41.3125 16.40625 
Q 40.71875 22.078125 38.84375 25.6875 
Q 36.96875 29.296875 34.46875 30.53125 
Q 31.984375 31.78125 27.25 31.78125 
L 27.25 13.140625 
Q 27.25 7.671875 27.703125 6.4375 
Q 28.171875 5.21875 29.4375 4.4375 
Q 30.71875 3.65625 33.546875 3.65625 
L 37.5 3.65625 
Q 46.78125 3.65625 52.359375 7.953125 
Q 57.953125 12.25 60.40625 21.046875 
L 62.203125 21.046875 
L 59.234375 0 
L 2 0 
L 2 1.8125 
L 4.203125 1.8125 
Q 7.078125 1.8125 8.84375 2.828125 
Q 10.109375 3.515625 10.796875 5.171875 
Q 11.328125 6.34375 11.328125 11.328125 
L 11.328125 54.890625 
Q 11.328125 59.375 11.078125 60.40625 
Q 10.59375 62.109375 9.28125 63.03125 
Q 7.421875 64.40625 4.203125 64.40625 
L 2 64.40625 
L 2 66.21875 
L 57.421875 66.21875 
L 57.421875 46.625 
L 55.5625 46.625 
Q 54.15625 53.8125 51.59375 56.9375 
Q 49.03125 60.0625 44.34375 61.53125 
Q 41.609375 62.40625 34.078125 62.40625 
z
" id="TimesNewRomanPS-BoldMT-69"/>
     <path d="M 12.5 15.046875 
Q 15.921875 15.046875 18.28125 12.640625 
Q 20.65625 10.25 20.65625 6.890625 
Q 20.65625 3.515625 18.265625 1.140625 
Q 15.875 -1.21875 12.5 -1.21875 
Q 9.125 -1.21875 6.75 1.140625 
Q 4.390625 3.515625 4.390625 6.890625 
Q 4.390625 10.25 6.75 12.640625 
Q 9.125 15.046875 12.5 15.046875 
z
" id="TimesNewRomanPS-BoldMT-46"/>
     <path d="M 40.625 11.765625 
L 42.140625 10.59375 
Q 38.921875 4.546875 34.109375 1.578125 
Q 29.296875 -1.375 23.875 -1.375 
Q 14.75 -1.375 9.28125 5.515625 
Q 3.8125 12.40625 3.8125 22.078125 
Q 3.8125 31.390625 8.796875 38.484375 
Q 14.796875 47.015625 25.34375 47.015625 
Q 32.421875 47.015625 36.59375 43.453125 
Q 40.765625 39.890625 40.765625 35.5 
Q 40.765625 32.71875 39.078125 31.046875 
Q 37.40625 29.390625 34.671875 29.390625 
Q 31.78125 29.390625 29.90625 31.296875 
Q 28.03125 33.203125 27.59375 38.09375 
Q 27.296875 41.15625 26.171875 42.390625 
Q 25.046875 43.609375 23.53125 43.609375 
Q 21.1875 43.609375 19.53125 41.109375 
Q 17 37.359375 17 29.59375 
Q 17 23.140625 19.046875 17.25 
Q 21.09375 11.375 24.65625 8.5 
Q 27.34375 6.390625 31 6.390625 
Q 33.40625 6.390625 35.546875 7.515625 
Q 37.703125 8.640625 40.625 11.765625 
z
" id="TimesNewRomanPS-BoldMT-99"/>
     <path d="M 21.234375 66.21875 
L 21.234375 9.46875 
Q 21.234375 4.640625 22.359375 3.296875 
Q 23.484375 1.953125 26.765625 1.765625 
L 26.765625 0 
L 2.09375 0 
L 2.09375 1.765625 
Q 5.125 1.859375 6.59375 3.515625 
Q 7.5625 4.640625 7.5625 9.46875 
L 7.5625 56.734375 
Q 7.5625 61.53125 6.4375 62.859375 
Q 5.328125 64.203125 2.09375 64.40625 
L 2.09375 66.21875 
z
" id="TimesNewRomanPS-BoldMT-108"/>
    </defs>
    <g transform="translate(696.397843 130.951529)scale(0.2 -0.2)">
     <use xlink:href="#TimesNewRomanPS-BoldMT-84"/>
     <use x="66.589844" xlink:href="#TimesNewRomanPS-BoldMT-114"/>
     <use x="110.974609" xlink:href="#TimesNewRomanPS-BoldMT-97"/>
     <use x="160.974609" xlink:href="#TimesNewRomanPS-BoldMT-105"/>
     <use x="188.757812" xlink:href="#TimesNewRomanPS-BoldMT-110"/>
     <use x="244.373047" xlink:href="#TimesNewRomanPS-BoldMT-101"/>
     <use x="288.757812" xlink:href="#TimesNewRomanPS-BoldMT-100"/>
     <use x="344.373047" xlink:href="#TimesNewRomanPS-BoldMT-32"/>
     <use x="369.373047" xlink:href="#TimesNewRomanPS-BoldMT-111"/>
     <use x="419.373047" xlink:href="#TimesNewRomanPS-BoldMT-110"/>
     <use x="474.988281" xlink:href="#TimesNewRomanPS-BoldMT-32"/>
     <use x="499.988281" xlink:href="#TimesNewRomanPS-BoldMT-69"/>
     <use x="566.6875" xlink:href="#TimesNewRomanPS-BoldMT-46"/>
     <use x="591.6875" xlink:href="#TimesNewRomanPS-BoldMT-99"/>
     <use x="636.072266" xlink:href="#TimesNewRomanPS-BoldMT-111"/>
     <use x="686.072266" xlink:href="#TimesNewRomanPS-BoldMT-108"/>
     <use x="713.855469" xlink:href="#TimesNewRomanPS-BoldMT-105"/>
    </g>
   </g>
   <g id="text_10">
    <!-- Trained on Salmonella -->
    <defs>
     <path d="M 46.96875 67.71875 
L 47.515625 45.65625 
L 45.515625 45.65625 
Q 44.09375 53.953125 38.546875 59 
Q 33.015625 64.0625 26.5625 64.0625 
Q 21.578125 64.0625 18.671875 61.390625 
Q 15.765625 58.734375 15.765625 55.28125 
Q 15.765625 53.078125 16.796875 51.375 
Q 18.21875 49.078125 21.34375 46.828125 
Q 23.640625 45.21875 31.9375 41.109375 
Q 43.5625 35.40625 47.609375 30.328125 
Q 51.609375 25.25 51.609375 18.703125 
Q 51.609375 10.40625 45.140625 4.421875 
Q 38.671875 -1.5625 28.71875 -1.5625 
Q 25.59375 -1.5625 22.796875 -0.921875 
Q 20.015625 -0.296875 15.828125 1.46875 
Q 13.484375 2.4375 11.96875 2.4375 
Q 10.6875 2.4375 9.265625 1.453125 
Q 7.859375 0.484375 6.984375 -1.515625 
L 5.171875 -1.515625 
L 5.171875 23.484375 
L 6.984375 23.484375 
Q 9.125 12.9375 15.25 7.390625 
Q 21.390625 1.859375 28.46875 1.859375 
Q 33.9375 1.859375 37.1875 4.828125 
Q 40.4375 7.8125 40.4375 11.765625 
Q 40.4375 14.109375 39.1875 16.296875 
Q 37.9375 18.5 35.390625 20.484375 
Q 32.859375 22.46875 26.421875 25.640625 
Q 17.390625 30.078125 13.421875 33.203125 
Q 9.46875 36.328125 7.34375 40.1875 
Q 5.21875 44.046875 5.21875 48.6875 
Q 5.21875 56.59375 11.03125 62.15625 
Q 16.84375 67.71875 25.6875 67.71875 
Q 28.90625 67.71875 31.9375 66.9375 
Q 34.234375 66.359375 37.53125 64.765625 
Q 40.828125 63.1875 42.140625 63.1875 
Q 43.40625 63.1875 44.140625 63.96875 
Q 44.875 64.75 45.515625 67.71875 
z
" id="TimesNewRomanPS-BoldMT-83"/>
    </defs>
    <g transform="translate(512.269954 494.501228)scale(0.2 -0.2)">
     <use xlink:href="#TimesNewRomanPS-BoldMT-84"/>
     <use x="66.589844" xlink:href="#TimesNewRomanPS-BoldMT-114"/>
     <use x="110.974609" xlink:href="#TimesNewRomanPS-BoldMT-97"/>
     <use x="160.974609" xlink:href="#TimesNewRomanPS-BoldMT-105"/>
     <use x="188.757812" xlink:href="#TimesNewRomanPS-BoldMT-110"/>
     <use x="244.373047" xlink:href="#TimesNewRomanPS-BoldMT-101"/>
     <use x="288.757812" xlink:href="#TimesNewRomanPS-BoldMT-100"/>
     <use x="344.373047" xlink:href="#TimesNewRomanPS-BoldMT-32"/>
     <use x="369.373047" xlink:href="#TimesNewRomanPS-BoldMT-111"/>
     <use x="419.373047" xlink:href="#TimesNewRomanPS-BoldMT-110"/>
     <use x="474.988281" xlink:href="#TimesNewRomanPS-BoldMT-32"/>
     <use x="499.988281" xlink:href="#TimesNewRomanPS-BoldMT-83"/>
     <use x="555.603516" xlink:href="#TimesNewRomanPS-BoldMT-97"/>
     <use x="605.603516" xlink:href="#TimesNewRomanPS-BoldMT-108"/>
     <use x="633.386719" xlink:href="#TimesNewRomanPS-BoldMT-109"/>
     <use x="716.6875" xlink:href="#TimesNewRomanPS-BoldMT-111"/>
     <use x="766.6875" xlink:href="#TimesNewRomanPS-BoldMT-110"/>
     <use x="822.302734" xlink:href="#TimesNewRomanPS-BoldMT-101"/>
     <use x="866.6875" xlink:href="#TimesNewRomanPS-BoldMT-108"/>
     <use x="894.470703" xlink:href="#TimesNewRomanPS-BoldMT-108"/>
     <use x="922.253906" xlink:href="#TimesNewRomanPS-BoldMT-97"/>
    </g>
   </g>
  </g>
 </g>
 <defs>
  <clipPath id="pdce63a6ea2">
   <rect height="434.88" width="577.474766" x="227.862617" y="69.12"/>
  </clipPath>
 </defs>
</svg>
